<mxfile host="65bd71144e">
    <diagram id="vu5_hG8pf9NjtnOe7BdC" name="Insertion_with_split">
        <mxGraphModel dx="1661" dy="1143" grid="1" gridSize="10" guides="1" tooltips="1" connect="1" arrows="1" fold="1" page="1" pageScale="1" pageWidth="1169" pageHeight="827" math="0" shadow="0">
            <root>
                <mxCell id="0"/>
                <mxCell id="1" parent="0"/>
                <mxCell id="117" value="P=1, max_size=2" style="shape=table;startSize=40;container=1;collapsible=0;childLayout=tableLayout;fontStyle=1;align=center;strokeColor=#005700;strokeWidth=1;fillColor=#008a00;fontColor=#ffffff;" parent="1" vertex="1">
                    <mxGeometry x="40" y="10" width="140" height="80" as="geometry"/>
                </mxCell>
                <mxCell id="118" value="" style="shape=partialRectangle;html=1;whiteSpace=wrap;collapsible=0;dropTarget=0;pointerEvents=0;fillColor=none;top=0;left=0;bottom=0;right=0;points=[[0,0.5],[1,0.5]];portConstraint=eastwest;strokeColor=#FF6392;fontColor=#5AA9E6;" parent="117" vertex="1">
                    <mxGeometry y="40" width="140" height="40" as="geometry"/>
                </mxCell>
                <mxCell id="119" value="1" style="shape=partialRectangle;html=1;whiteSpace=wrap;connectable=0;top=1;left=1;bottom=1;right=1;overflow=hidden;fillColor=#FFE45E;strokeColor=#FF6392;fontColor=#5AA9E6;" parent="118" vertex="1">
                    <mxGeometry width="70" height="40" as="geometry"/>
                </mxCell>
                <mxCell id="120" value="" style="shape=partialRectangle;html=1;whiteSpace=wrap;connectable=0;top=1;left=1;bottom=1;right=1;overflow=hidden;fillColor=#FFE45E;strokeColor=#FF6392;fontColor=#5AA9E6;" parent="118" vertex="1">
                    <mxGeometry x="70" width="70" height="40" as="geometry"/>
                </mxCell>
                <mxCell id="153" value="Insert 2" style="shape=flexArrow;endArrow=classic;html=1;labelBackgroundColor=none;strokeColor=#FF6392;fontColor=#5AA9E6;fontSize=20;" parent="1" edge="1">
                    <mxGeometry width="50" height="50" relative="1" as="geometry">
                        <mxPoint x="109.5" y="99.99999999999999" as="sourcePoint"/>
                        <mxPoint x="109.5" y="150.42000000000002" as="targetPoint"/>
                    </mxGeometry>
                </mxCell>
                <mxCell id="164" value="Insert 3" style="shape=flexArrow;endArrow=classic;html=1;labelBackgroundColor=none;strokeColor=#FF6392;fontColor=#5AA9E6;fontSize=20;" parent="1" edge="1">
                    <mxGeometry width="50" height="50" relative="1" as="geometry">
                        <mxPoint x="590" y="79.58000000000003" as="sourcePoint"/>
                        <mxPoint x="680" y="79.58000000000003" as="targetPoint"/>
                    </mxGeometry>
                </mxCell>
                <mxCell id="242" value="Insert 4" style="shape=flexArrow;endArrow=classic;html=1;labelBackgroundColor=none;strokeColor=#FF6392;fontColor=#5AA9E6;fontSize=20;" parent="1" edge="1">
                    <mxGeometry width="50" height="50" relative="1" as="geometry">
                        <mxPoint x="640" y="320" as="sourcePoint"/>
                        <mxPoint x="510" y="320" as="targetPoint"/>
                    </mxGeometry>
                </mxCell>
                <mxCell id="302" value="Insert 5" style="shape=flexArrow;endArrow=classic;html=1;labelBackgroundColor=none;strokeColor=#FF6392;fontColor=#5AA9E6;fontSize=20;" parent="1" edge="1">
                    <mxGeometry width="50" height="50" relative="1" as="geometry">
                        <mxPoint x="650" y="610" as="sourcePoint"/>
                        <mxPoint x="760" y="610" as="targetPoint"/>
                    </mxGeometry>
                </mxCell>
                <mxCell id="263" value="Split" style="shape=flexArrow;endArrow=classic;html=1;strokeColor=#FF6392;fontColor=#5AA9E6;labelBackgroundColor=none;edgeStyle=orthogonalEdgeStyle;fontSize=20;" parent="1" edge="1">
                    <mxGeometry width="50" height="50" as="geometry">
                        <mxPoint x="150" y="320" as="sourcePoint"/>
                        <mxPoint x="150" y="640" as="targetPoint"/>
                        <Array as="points">
                            <mxPoint x="60" y="320"/>
                            <mxPoint x="60" y="640"/>
                        </Array>
                        <mxPoint x="-90" as="offset"/>
                    </mxGeometry>
                </mxCell>
                <mxCell id="130" value="P=1, max_size=2" style="shape=table;startSize=40;container=1;collapsible=0;childLayout=tableLayout;fontStyle=1;align=center;strokeColor=#005700;strokeWidth=1;fillColor=#008a00;fontColor=#ffffff;" parent="1" vertex="1">
                    <mxGeometry x="40" y="160" width="140" height="80" as="geometry"/>
                </mxCell>
                <mxCell id="131" value="" style="shape=partialRectangle;html=1;whiteSpace=wrap;collapsible=0;dropTarget=0;pointerEvents=0;fillColor=none;top=0;left=0;bottom=0;right=0;points=[[0,0.5],[1,0.5]];portConstraint=eastwest;strokeColor=#FF6392;fontColor=#5AA9E6;" parent="130" vertex="1">
                    <mxGeometry y="40" width="140" height="40" as="geometry"/>
                </mxCell>
                <mxCell id="132" value="1" style="shape=partialRectangle;html=1;whiteSpace=wrap;connectable=0;top=1;left=1;bottom=1;right=1;overflow=hidden;fillColor=#FFE45E;strokeColor=#FF6392;fontColor=#5AA9E6;" parent="131" vertex="1">
                    <mxGeometry width="70" height="40" as="geometry"/>
                </mxCell>
                <mxCell id="133" value="&lt;font&gt;2&lt;/font&gt;" style="shape=partialRectangle;html=1;whiteSpace=wrap;connectable=0;top=1;left=1;bottom=1;right=1;overflow=hidden;fillColor=#FFE45E;strokeColor=#FF6392;fontColor=#0000CC;" parent="131" vertex="1">
                    <mxGeometry x="70" width="70" height="40" as="geometry"/>
                </mxCell>
                <mxCell id="152" value="Split" style="shape=flexArrow;endArrow=classic;html=1;labelBackgroundColor=none;strokeColor=#FF6392;fontColor=#5AA9E6;fontSize=20;" parent="1" edge="1">
                    <mxGeometry x="65" y="40" width="50" height="50" as="geometry">
                        <mxPoint x="200" y="160" as="sourcePoint"/>
                        <mxPoint x="290" y="100" as="targetPoint"/>
                    </mxGeometry>
                </mxCell>
                <mxCell id="180" value="Split" style="shape=flexArrow;endArrow=classic;html=1;labelBackgroundColor=none;strokeColor=#FF6392;fontColor=#5AA9E6;edgeStyle=orthogonalEdgeStyle;fontSize=20;" parent="1" edge="1">
                    <mxGeometry width="50" height="50" as="geometry">
                        <mxPoint x="990" y="100" as="sourcePoint"/>
                        <mxPoint x="1070" y="360" as="targetPoint"/>
                        <Array as="points">
                            <mxPoint x="1160" y="100"/>
                            <mxPoint x="1160" y="360"/>
                            <mxPoint x="1070" y="360"/>
                        </Array>
                        <mxPoint x="130" as="offset"/>
                    </mxGeometry>
                </mxCell>
                <mxCell id="ylJ7pE1yGz0sWO5ydy1k-672" value="" style="group" vertex="1" connectable="0" parent="1">
                    <mxGeometry x="100" y="240" width="460" height="200" as="geometry"/>
                </mxCell>
                <mxCell id="243" value="P=3,Â max_size=3" style="shape=table;startSize=40;container=1;collapsible=0;childLayout=tableLayout;fontStyle=1;align=center;strokeColor=#006EAF;strokeWidth=1;fillColor=#1ba1e2;fontColor=#ffffff;" parent="ylJ7pE1yGz0sWO5ydy1k-672" vertex="1">
                    <mxGeometry x="160" width="140" height="80" as="geometry"/>
                </mxCell>
                <mxCell id="244" value="" style="shape=partialRectangle;html=1;whiteSpace=wrap;collapsible=0;dropTarget=0;pointerEvents=0;fillColor=none;top=0;left=0;bottom=0;right=0;points=[[0,0.5],[1,0.5]];portConstraint=eastwest;strokeColor=#FF6392;fontColor=#5AA9E6;" parent="243" vertex="1">
                    <mxGeometry y="40" width="140" height="40" as="geometry"/>
                </mxCell>
                <mxCell id="245" value="" style="shape=partialRectangle;html=1;whiteSpace=wrap;connectable=0;top=1;left=1;bottom=1;right=1;overflow=hidden;fillColor=#FFE45E;strokeColor=#FF6392;fontColor=#5AA9E6;" parent="244" vertex="1">
                    <mxGeometry width="47" height="40" as="geometry"/>
                </mxCell>
                <mxCell id="246" value="2" style="shape=partialRectangle;html=1;whiteSpace=wrap;connectable=0;top=1;left=1;bottom=1;right=1;overflow=hidden;fillColor=#FFE45E;strokeColor=#FF6392;fontColor=#5AA9E6;" parent="244" vertex="1">
                    <mxGeometry x="47" width="46" height="40" as="geometry"/>
                </mxCell>
                <mxCell id="247" value="3" style="shape=partialRectangle;html=1;whiteSpace=wrap;connectable=0;top=1;left=1;bottom=1;right=1;overflow=hidden;fillColor=#FFE45E;strokeColor=#FF6392;fontColor=#5AA9E6;" parent="244" vertex="1">
                    <mxGeometry x="93" width="47" height="40" as="geometry"/>
                </mxCell>
                <mxCell id="248" style="rounded=0;orthogonalLoop=1;jettySize=auto;html=1;exitX=0.159;exitY=0.995;exitDx=0;exitDy=0;exitPerimeter=0;entryX=0.5;entryY=0;entryDx=0;entryDy=0;strokeColor=#FF6392;fontColor=#5AA9E6;" parent="ylJ7pE1yGz0sWO5ydy1k-672" source="244" target="249" edge="1">
                    <mxGeometry x="-70" as="geometry">
                        <mxPoint x="100" y="80" as="sourcePoint"/>
                        <mxPoint x="120" y="90" as="targetPoint"/>
                    </mxGeometry>
                </mxCell>
                <mxCell id="249" value="P=1, max_size=2" style="shape=table;startSize=40;container=1;collapsible=0;childLayout=tableLayout;fontStyle=1;align=center;strokeColor=#005700;strokeWidth=1;fillColor=#008a00;fontColor=#ffffff;" parent="ylJ7pE1yGz0sWO5ydy1k-672" vertex="1">
                    <mxGeometry y="120" width="140" height="80" as="geometry"/>
                </mxCell>
                <mxCell id="250" value="" style="shape=partialRectangle;html=1;whiteSpace=wrap;collapsible=0;dropTarget=0;pointerEvents=0;fillColor=none;top=0;left=0;bottom=0;right=0;points=[[0,0.5],[1,0.5]];portConstraint=eastwest;strokeColor=#FF6392;fontColor=#5AA9E6;" parent="249" vertex="1">
                    <mxGeometry y="40" width="140" height="40" as="geometry"/>
                </mxCell>
                <mxCell id="251" value="1" style="shape=partialRectangle;html=1;whiteSpace=wrap;connectable=0;top=1;left=1;bottom=1;right=1;overflow=hidden;fillColor=#FFE45E;strokeColor=#FF6392;fontColor=#5AA9E6;" parent="250" vertex="1">
                    <mxGeometry width="70" height="40" as="geometry"/>
                </mxCell>
                <mxCell id="252" value="" style="shape=partialRectangle;html=1;whiteSpace=wrap;connectable=0;top=1;left=1;bottom=1;right=1;overflow=hidden;fillColor=#FFE45E;strokeColor=#FF6392;fontColor=#5AA9E6;" parent="250" vertex="1">
                    <mxGeometry x="70" width="70" height="40" as="geometry"/>
                </mxCell>
                <mxCell id="253" value="P=2, max_size=2" style="shape=table;startSize=40;container=1;collapsible=0;childLayout=tableLayout;fontStyle=1;align=center;strokeColor=#005700;strokeWidth=1;fillColor=#008a00;fontColor=#ffffff;" parent="ylJ7pE1yGz0sWO5ydy1k-672" vertex="1">
                    <mxGeometry x="160" y="120" width="140" height="80" as="geometry"/>
                </mxCell>
                <mxCell id="254" value="" style="shape=partialRectangle;html=1;whiteSpace=wrap;collapsible=0;dropTarget=0;pointerEvents=0;fillColor=none;top=0;left=0;bottom=0;right=0;points=[[0,0.5],[1,0.5]];portConstraint=eastwest;strokeColor=#FF6392;fontColor=#5AA9E6;" parent="253" vertex="1">
                    <mxGeometry y="40" width="140" height="40" as="geometry"/>
                </mxCell>
                <mxCell id="255" value="2" style="shape=partialRectangle;html=1;whiteSpace=wrap;connectable=0;top=1;left=1;bottom=1;right=1;overflow=hidden;fillColor=#FFE45E;strokeColor=#FF6392;fontColor=#5AA9E6;" parent="254" vertex="1">
                    <mxGeometry width="70" height="40" as="geometry"/>
                </mxCell>
                <mxCell id="256" value="" style="shape=partialRectangle;html=1;whiteSpace=wrap;connectable=0;top=1;left=1;bottom=1;right=1;overflow=hidden;fillColor=#FFE45E;strokeColor=#FF6392;fontColor=#5AA9E6;" parent="254" vertex="1">
                    <mxGeometry x="70" width="70" height="40" as="geometry"/>
                </mxCell>
                <mxCell id="257" style="rounded=0;orthogonalLoop=1;jettySize=auto;html=1;entryX=0.5;entryY=0;entryDx=0;entryDy=0;exitX=0.5;exitY=1.005;exitDx=0;exitDy=0;exitPerimeter=0;strokeColor=#FF6392;fontColor=#5AA9E6;" parent="ylJ7pE1yGz0sWO5ydy1k-672" source="244" target="253" edge="1">
                    <mxGeometry x="-70" as="geometry">
                        <mxPoint x="230" y="80" as="sourcePoint"/>
                        <mxPoint x="90" y="130" as="targetPoint"/>
                    </mxGeometry>
                </mxCell>
                <mxCell id="258" value="P=4, max_size=2" style="shape=table;startSize=40;container=1;collapsible=0;childLayout=tableLayout;fontStyle=1;align=center;strokeColor=#005700;strokeWidth=1;fillColor=#008a00;fontColor=#ffffff;" parent="ylJ7pE1yGz0sWO5ydy1k-672" vertex="1">
                    <mxGeometry x="320" y="120" width="140" height="80" as="geometry"/>
                </mxCell>
                <mxCell id="259" value="" style="shape=partialRectangle;html=1;whiteSpace=wrap;collapsible=0;dropTarget=0;pointerEvents=0;fillColor=none;top=0;left=0;bottom=0;right=0;points=[[0,0.5],[1,0.5]];portConstraint=eastwest;strokeColor=#FF6392;fontColor=#5AA9E6;" parent="258" vertex="1">
                    <mxGeometry y="40" width="140" height="40" as="geometry"/>
                </mxCell>
                <mxCell id="260" value="3" style="shape=partialRectangle;html=1;whiteSpace=wrap;connectable=0;top=1;left=1;bottom=1;right=1;overflow=hidden;fillColor=#FFE45E;strokeColor=#FF6392;fontColor=#5AA9E6;" parent="259" vertex="1">
                    <mxGeometry width="70" height="40" as="geometry"/>
                </mxCell>
                <mxCell id="261" value="4" style="shape=partialRectangle;html=1;whiteSpace=wrap;connectable=0;top=1;left=1;bottom=1;right=1;overflow=hidden;fillColor=#FFE45E;strokeColor=#FF6392;fontColor=#0000CC;" parent="259" vertex="1">
                    <mxGeometry x="70" width="70" height="40" as="geometry"/>
                </mxCell>
                <mxCell id="262" style="rounded=0;orthogonalLoop=1;jettySize=auto;html=1;entryX=0.5;entryY=0;entryDx=0;entryDy=0;exitX=0.836;exitY=0.995;exitDx=0;exitDy=0;exitPerimeter=0;strokeColor=#FF6392;fontColor=#5AA9E6;" parent="ylJ7pE1yGz0sWO5ydy1k-672" source="244" target="258" edge="1">
                    <mxGeometry x="-70" as="geometry">
                        <mxPoint x="280" y="79.99999999999989" as="sourcePoint"/>
                        <mxPoint x="280" y="119.79999999999995" as="targetPoint"/>
                    </mxGeometry>
                </mxCell>
                <mxCell id="666" style="edgeStyle=none;rounded=0;orthogonalLoop=1;jettySize=auto;html=1;exitX=1;exitY=0.25;exitDx=0;exitDy=0;labelBackgroundColor=none;strokeColor=#FF6392;fontColor=#5AA9E6;" parent="ylJ7pE1yGz0sWO5ydy1k-672" source="249" edge="1">
                    <mxGeometry relative="1" as="geometry">
                        <mxPoint x="160" y="140" as="targetPoint"/>
                    </mxGeometry>
                </mxCell>
                <mxCell id="667" style="edgeStyle=none;rounded=0;orthogonalLoop=1;jettySize=auto;html=1;exitX=1;exitY=0.25;exitDx=0;exitDy=0;labelBackgroundColor=none;entryX=0;entryY=0.25;entryDx=0;entryDy=0;strokeColor=#FF6392;fontColor=#5AA9E6;" parent="ylJ7pE1yGz0sWO5ydy1k-672" source="253" edge="1" target="258">
                    <mxGeometry relative="1" as="geometry">
                        <mxPoint x="310" y="140" as="targetPoint"/>
                    </mxGeometry>
                </mxCell>
                <mxCell id="ylJ7pE1yGz0sWO5ydy1k-673" value="" style="group" vertex="1" connectable="0" parent="1">
                    <mxGeometry x="600" y="240" width="460" height="200" as="geometry"/>
                </mxCell>
                <mxCell id="196" value="P=3,Â max_size=3" style="shape=table;startSize=40;container=1;collapsible=0;childLayout=tableLayout;fontStyle=1;align=center;strokeColor=#006EAF;strokeWidth=1;fillColor=#1ba1e2;fontColor=#ffffff;" parent="ylJ7pE1yGz0sWO5ydy1k-673" vertex="1">
                    <mxGeometry x="159" width="140" height="80" as="geometry"/>
                </mxCell>
                <mxCell id="197" value="" style="shape=partialRectangle;html=1;whiteSpace=wrap;collapsible=0;dropTarget=0;pointerEvents=0;fillColor=none;top=0;left=0;bottom=0;right=0;points=[[0,0.5],[1,0.5]];portConstraint=eastwest;strokeColor=#FF6392;fontColor=#5AA9E6;" parent="196" vertex="1">
                    <mxGeometry y="40" width="140" height="40" as="geometry"/>
                </mxCell>
                <mxCell id="198" value="" style="shape=partialRectangle;html=1;whiteSpace=wrap;connectable=0;top=1;left=1;bottom=1;right=1;overflow=hidden;fillColor=#FFE45E;strokeColor=#FF6392;fontColor=#5AA9E6;" parent="197" vertex="1">
                    <mxGeometry width="47" height="40" as="geometry"/>
                </mxCell>
                <mxCell id="199" value="2" style="shape=partialRectangle;html=1;whiteSpace=wrap;connectable=0;top=1;left=1;bottom=1;right=1;overflow=hidden;fillColor=#FFE45E;strokeColor=#FF6392;fontColor=#5AA9E6;" parent="197" vertex="1">
                    <mxGeometry x="47" width="46" height="40" as="geometry"/>
                </mxCell>
                <mxCell id="200" value="3" style="shape=partialRectangle;html=1;whiteSpace=wrap;connectable=0;top=1;left=1;bottom=1;right=1;overflow=hidden;fillColor=#FFE45E;strokeColor=#FF6392;fontColor=#5AA9E6;" parent="197" vertex="1">
                    <mxGeometry x="93" width="47" height="40" as="geometry"/>
                </mxCell>
                <mxCell id="201" style="rounded=0;orthogonalLoop=1;jettySize=auto;html=1;exitX=0.159;exitY=0.995;exitDx=0;exitDy=0;exitPerimeter=0;entryX=0.5;entryY=0;entryDx=0;entryDy=0;strokeColor=#FF6392;fontColor=#5AA9E6;" parent="ylJ7pE1yGz0sWO5ydy1k-673" source="197" target="202" edge="1">
                    <mxGeometry x="9" y="-300" as="geometry">
                        <mxPoint x="99" y="80" as="sourcePoint"/>
                        <mxPoint x="119" y="90" as="targetPoint"/>
                    </mxGeometry>
                </mxCell>
                <mxCell id="202" value="P=1, max_size=2" style="shape=table;startSize=40;container=1;collapsible=0;childLayout=tableLayout;fontStyle=1;align=center;strokeColor=#005700;strokeWidth=1;fillColor=#008a00;fontColor=#ffffff;" parent="ylJ7pE1yGz0sWO5ydy1k-673" vertex="1">
                    <mxGeometry y="120" width="140" height="80" as="geometry"/>
                </mxCell>
                <mxCell id="203" value="" style="shape=partialRectangle;html=1;whiteSpace=wrap;collapsible=0;dropTarget=0;pointerEvents=0;fillColor=none;top=0;left=0;bottom=0;right=0;points=[[0,0.5],[1,0.5]];portConstraint=eastwest;strokeColor=#FF6392;fontColor=#5AA9E6;" parent="202" vertex="1">
                    <mxGeometry y="40" width="140" height="40" as="geometry"/>
                </mxCell>
                <mxCell id="204" value="1" style="shape=partialRectangle;html=1;whiteSpace=wrap;connectable=0;top=1;left=1;bottom=1;right=1;overflow=hidden;fillColor=#FFE45E;strokeColor=#FF6392;fontColor=#5AA9E6;" parent="203" vertex="1">
                    <mxGeometry width="70" height="40" as="geometry"/>
                </mxCell>
                <mxCell id="205" value="" style="shape=partialRectangle;html=1;whiteSpace=wrap;connectable=0;top=1;left=1;bottom=1;right=1;overflow=hidden;fillColor=#FFE45E;strokeColor=#FF6392;fontColor=#5AA9E6;" parent="203" vertex="1">
                    <mxGeometry x="70" width="70" height="40" as="geometry"/>
                </mxCell>
                <mxCell id="206" value="P=2, max_size=2" style="shape=table;startSize=40;container=1;collapsible=0;childLayout=tableLayout;fontStyle=1;align=center;strokeColor=#005700;strokeWidth=1;fillColor=#008a00;fontColor=#ffffff;" parent="ylJ7pE1yGz0sWO5ydy1k-673" vertex="1">
                    <mxGeometry x="159" y="120" width="140" height="80" as="geometry"/>
                </mxCell>
                <mxCell id="207" value="" style="shape=partialRectangle;html=1;whiteSpace=wrap;collapsible=0;dropTarget=0;pointerEvents=0;fillColor=none;top=0;left=0;bottom=0;right=0;points=[[0,0.5],[1,0.5]];portConstraint=eastwest;strokeColor=#FF6392;fontColor=#5AA9E6;" parent="206" vertex="1">
                    <mxGeometry y="40" width="140" height="40" as="geometry"/>
                </mxCell>
                <mxCell id="208" value="2" style="shape=partialRectangle;html=1;whiteSpace=wrap;connectable=0;top=1;left=1;bottom=1;right=1;overflow=hidden;fillColor=#FFE45E;strokeColor=#FF6392;fontColor=#5AA9E6;" parent="207" vertex="1">
                    <mxGeometry width="70" height="40" as="geometry"/>
                </mxCell>
                <mxCell id="209" value="" style="shape=partialRectangle;html=1;whiteSpace=wrap;connectable=0;top=1;left=1;bottom=1;right=1;overflow=hidden;fillColor=#FFE45E;strokeColor=#FF6392;fontColor=#5AA9E6;" parent="207" vertex="1">
                    <mxGeometry x="70" width="70" height="40" as="geometry"/>
                </mxCell>
                <mxCell id="669" style="edgeStyle=none;rounded=0;orthogonalLoop=1;jettySize=auto;html=1;exitX=1;exitY=0.25;exitDx=0;exitDy=0;entryX=0;entryY=0.25;entryDx=0;entryDy=0;labelBackgroundColor=none;strokeColor=#FF6392;fontColor=#5AA9E6;" parent="ylJ7pE1yGz0sWO5ydy1k-673" source="202" target="206" edge="1">
                    <mxGeometry x="9" y="-300" as="geometry"/>
                </mxCell>
                <mxCell id="210" style="rounded=0;orthogonalLoop=1;jettySize=auto;html=1;entryX=0.5;entryY=0;entryDx=0;entryDy=0;exitX=0.5;exitY=1.005;exitDx=0;exitDy=0;exitPerimeter=0;strokeColor=#FF6392;fontColor=#5AA9E6;" parent="ylJ7pE1yGz0sWO5ydy1k-673" source="197" target="206" edge="1">
                    <mxGeometry x="9" y="-300" as="geometry">
                        <mxPoint x="229" y="80" as="sourcePoint"/>
                        <mxPoint x="89" y="130" as="targetPoint"/>
                    </mxGeometry>
                </mxCell>
                <mxCell id="211" value="P=4, max_size=2" style="shape=table;startSize=40;container=1;collapsible=0;childLayout=tableLayout;fontStyle=1;align=center;strokeColor=#005700;strokeWidth=1;fillColor=#008a00;fontColor=#ffffff;" parent="ylJ7pE1yGz0sWO5ydy1k-673" vertex="1">
                    <mxGeometry x="320" y="120" width="140" height="80" as="geometry"/>
                </mxCell>
                <mxCell id="212" value="" style="shape=partialRectangle;html=1;whiteSpace=wrap;collapsible=0;dropTarget=0;pointerEvents=0;fillColor=none;top=0;left=0;bottom=0;right=0;points=[[0,0.5],[1,0.5]];portConstraint=eastwest;strokeColor=#FF6392;fontColor=#5AA9E6;" parent="211" vertex="1">
                    <mxGeometry y="40" width="140" height="40" as="geometry"/>
                </mxCell>
                <mxCell id="213" value="3" style="shape=partialRectangle;html=1;whiteSpace=wrap;connectable=0;top=1;left=1;bottom=1;right=1;overflow=hidden;fillColor=#FFE45E;strokeColor=#FF6392;fontColor=#5AA9E6;" parent="212" vertex="1">
                    <mxGeometry width="70" height="40" as="geometry"/>
                </mxCell>
                <mxCell id="214" value="" style="shape=partialRectangle;html=1;whiteSpace=wrap;connectable=0;top=1;left=1;bottom=1;right=1;overflow=hidden;fillColor=#FFE45E;strokeColor=#FF6392;fontColor=#5AA9E6;" parent="212" vertex="1">
                    <mxGeometry x="70" width="70" height="40" as="geometry"/>
                </mxCell>
                <mxCell id="670" style="edgeStyle=none;rounded=0;orthogonalLoop=1;jettySize=auto;html=1;exitX=1;exitY=0.25;exitDx=0;exitDy=0;entryX=0;entryY=0.25;entryDx=0;entryDy=0;labelBackgroundColor=none;strokeColor=#FF6392;fontColor=#5AA9E6;" parent="ylJ7pE1yGz0sWO5ydy1k-673" source="206" target="211" edge="1">
                    <mxGeometry x="9" y="-300" as="geometry"/>
                </mxCell>
                <mxCell id="215" style="rounded=0;orthogonalLoop=1;jettySize=auto;html=1;entryX=0.5;entryY=0;entryDx=0;entryDy=0;exitX=0.836;exitY=0.995;exitDx=0;exitDy=0;exitPerimeter=0;strokeColor=#FF6392;fontColor=#5AA9E6;" parent="ylJ7pE1yGz0sWO5ydy1k-673" source="197" target="211" edge="1">
                    <mxGeometry x="9" y="-300" as="geometry">
                        <mxPoint x="279" y="79.99999999999989" as="sourcePoint"/>
                        <mxPoint x="279" y="119.79999999999995" as="targetPoint"/>
                    </mxGeometry>
                </mxCell>
                <mxCell id="ylJ7pE1yGz0sWO5ydy1k-674" value="" style="group" vertex="1" connectable="0" parent="1">
                    <mxGeometry x="670" y="10" width="300" height="200" as="geometry"/>
                </mxCell>
                <mxCell id="165" value="P=3, max_size=3" style="shape=table;startSize=40;container=1;collapsible=0;childLayout=tableLayout;fontStyle=1;align=center;strokeColor=#006EAF;strokeWidth=1;fillColor=#1ba1e2;fontColor=#ffffff;" parent="ylJ7pE1yGz0sWO5ydy1k-674" vertex="1">
                    <mxGeometry x="80" width="140" height="80" as="geometry"/>
                </mxCell>
                <mxCell id="166" value="" style="shape=partialRectangle;html=1;whiteSpace=wrap;collapsible=0;dropTarget=0;pointerEvents=0;fillColor=none;top=0;left=0;bottom=0;right=0;points=[[0,0.5],[1,0.5]];portConstraint=eastwest;strokeColor=#FF6392;fontColor=#5AA9E6;" parent="165" vertex="1">
                    <mxGeometry y="40" width="140" height="40" as="geometry"/>
                </mxCell>
                <mxCell id="167" value="" style="shape=partialRectangle;html=1;whiteSpace=wrap;connectable=0;top=1;left=1;bottom=1;right=1;overflow=hidden;fillColor=#FFE45E;strokeColor=#FF6392;fontColor=#5AA9E6;" parent="166" vertex="1">
                    <mxGeometry width="47" height="40" as="geometry"/>
                </mxCell>
                <mxCell id="168" value="2" style="shape=partialRectangle;html=1;whiteSpace=wrap;connectable=0;top=1;left=1;bottom=1;right=1;overflow=hidden;fillColor=#FFE45E;strokeColor=#FF6392;fontColor=#5AA9E6;" parent="166" vertex="1">
                    <mxGeometry x="47" width="46" height="40" as="geometry"/>
                </mxCell>
                <mxCell id="169" style="shape=partialRectangle;html=1;whiteSpace=wrap;connectable=0;top=1;left=1;bottom=1;right=1;overflow=hidden;fillColor=#FFE45E;strokeColor=#FF6392;fontColor=#5AA9E6;" parent="166" vertex="1">
                    <mxGeometry x="93" width="47" height="40" as="geometry"/>
                </mxCell>
                <mxCell id="170" style="rounded=0;orthogonalLoop=1;jettySize=auto;html=1;exitX=0.159;exitY=0.999;exitDx=0;exitDy=0;exitPerimeter=0;entryX=0.5;entryY=0;entryDx=0;entryDy=0;strokeColor=#FF6392;fontColor=#5AA9E6;" parent="ylJ7pE1yGz0sWO5ydy1k-674" source="166" target="171" edge="1">
                    <mxGeometry x="-70" as="geometry">
                        <mxPoint x="20" y="80" as="sourcePoint"/>
                        <mxPoint x="40" y="90" as="targetPoint"/>
                    </mxGeometry>
                </mxCell>
                <mxCell id="171" value="P=1, max_size=2" style="shape=table;startSize=40;container=1;collapsible=0;childLayout=tableLayout;fontStyle=1;align=center;strokeColor=#005700;strokeWidth=1;fillColor=#008a00;fontColor=#ffffff;" parent="ylJ7pE1yGz0sWO5ydy1k-674" vertex="1">
                    <mxGeometry y="120" width="140" height="80" as="geometry"/>
                </mxCell>
                <mxCell id="172" value="" style="shape=partialRectangle;html=1;whiteSpace=wrap;collapsible=0;dropTarget=0;pointerEvents=0;fillColor=none;top=0;left=0;bottom=0;right=0;points=[[0,0.5],[1,0.5]];portConstraint=eastwest;strokeColor=#FF6392;fontColor=#5AA9E6;" parent="171" vertex="1">
                    <mxGeometry y="40" width="140" height="40" as="geometry"/>
                </mxCell>
                <mxCell id="173" value="1" style="shape=partialRectangle;html=1;whiteSpace=wrap;connectable=0;top=1;left=1;bottom=1;right=1;overflow=hidden;fillColor=#FFE45E;strokeColor=#FF6392;fontColor=#5AA9E6;" parent="172" vertex="1">
                    <mxGeometry width="70" height="40" as="geometry"/>
                </mxCell>
                <mxCell id="174" value="" style="shape=partialRectangle;html=1;whiteSpace=wrap;connectable=0;top=1;left=1;bottom=1;right=1;overflow=hidden;fillColor=#FFE45E;strokeColor=#FF6392;fontColor=#5AA9E6;" parent="172" vertex="1">
                    <mxGeometry x="70" width="70" height="40" as="geometry"/>
                </mxCell>
                <mxCell id="175" value="P=2, max_size=2" style="shape=table;startSize=40;container=1;collapsible=0;childLayout=tableLayout;fontStyle=1;align=center;strokeColor=#005700;strokeWidth=1;fillColor=#008a00;fontColor=#ffffff;" parent="ylJ7pE1yGz0sWO5ydy1k-674" vertex="1">
                    <mxGeometry x="160" y="120" width="140" height="80" as="geometry"/>
                </mxCell>
                <mxCell id="176" value="" style="shape=partialRectangle;html=1;whiteSpace=wrap;collapsible=0;dropTarget=0;pointerEvents=0;fillColor=none;top=0;left=0;bottom=0;right=0;points=[[0,0.5],[1,0.5]];portConstraint=eastwest;strokeColor=#FF6392;fontColor=#5AA9E6;" parent="175" vertex="1">
                    <mxGeometry y="40" width="140" height="40" as="geometry"/>
                </mxCell>
                <mxCell id="177" value="2" style="shape=partialRectangle;html=1;whiteSpace=wrap;connectable=0;top=1;left=1;bottom=1;right=1;overflow=hidden;fillColor=#FFE45E;strokeColor=#FF6392;fontColor=#5AA9E6;" parent="176" vertex="1">
                    <mxGeometry width="70" height="40" as="geometry"/>
                </mxCell>
                <mxCell id="178" value="&lt;font&gt;3&lt;/font&gt;" style="shape=partialRectangle;html=1;whiteSpace=wrap;connectable=0;top=1;left=1;bottom=1;right=1;overflow=hidden;fillColor=#FFE45E;strokeColor=#FF6392;fontColor=#0000CC;" parent="176" vertex="1">
                    <mxGeometry x="70" width="70" height="40" as="geometry"/>
                </mxCell>
                <mxCell id="668" style="edgeStyle=none;rounded=0;orthogonalLoop=1;jettySize=auto;html=1;exitX=1;exitY=0.25;exitDx=0;exitDy=0;entryX=0;entryY=0.25;entryDx=0;entryDy=0;labelBackgroundColor=none;strokeColor=#FF6392;fontColor=#5AA9E6;" parent="ylJ7pE1yGz0sWO5ydy1k-674" source="171" target="175" edge="1">
                    <mxGeometry x="-70" as="geometry"/>
                </mxCell>
                <mxCell id="179" style="rounded=0;orthogonalLoop=1;jettySize=auto;html=1;entryX=0.5;entryY=0;entryDx=0;entryDy=0;exitX=0.5;exitY=1.005;exitDx=0;exitDy=0;exitPerimeter=0;strokeColor=#FF6392;fontColor=#5AA9E6;" parent="ylJ7pE1yGz0sWO5ydy1k-674" source="166" target="175" edge="1">
                    <mxGeometry x="-70" as="geometry">
                        <mxPoint x="150" y="80" as="sourcePoint"/>
                        <mxPoint x="10" y="130" as="targetPoint"/>
                    </mxGeometry>
                </mxCell>
                <mxCell id="ylJ7pE1yGz0sWO5ydy1k-675" value="" style="group" vertex="1" connectable="0" parent="1">
                    <mxGeometry x="50" y="510" width="640" height="290" as="geometry"/>
                </mxCell>
                <mxCell id="264" value="P=3,Â max_size=3" style="shape=table;startSize=40;container=1;collapsible=0;childLayout=tableLayout;fontStyle=1;align=center;strokeColor=#006EAF;strokeWidth=1;fillColor=#1ba1e2;fontColor=#ffffff;" parent="ylJ7pE1yGz0sWO5ydy1k-675" vertex="1">
                    <mxGeometry x="110" y="90" width="140" height="80" as="geometry"/>
                </mxCell>
                <mxCell id="265" value="" style="shape=partialRectangle;html=1;whiteSpace=wrap;collapsible=0;dropTarget=0;pointerEvents=0;fillColor=none;top=0;left=0;bottom=0;right=0;points=[[0,0.5],[1,0.5]];portConstraint=eastwest;strokeColor=#FF6392;fontColor=#5AA9E6;" parent="264" vertex="1">
                    <mxGeometry y="40" width="140" height="40" as="geometry"/>
                </mxCell>
                <mxCell id="266" value="" style="shape=partialRectangle;html=1;whiteSpace=wrap;connectable=0;top=1;left=1;bottom=1;right=1;overflow=hidden;fillColor=#FFE45E;strokeColor=#FF6392;fontColor=#5AA9E6;" parent="265" vertex="1">
                    <mxGeometry width="47" height="40" as="geometry"/>
                </mxCell>
                <mxCell id="267" value="2" style="shape=partialRectangle;html=1;whiteSpace=wrap;connectable=0;top=1;left=1;bottom=1;right=1;overflow=hidden;fillColor=#FFE45E;strokeColor=#FF6392;fontColor=#5AA9E6;" parent="265" vertex="1">
                    <mxGeometry x="47" width="46" height="40" as="geometry"/>
                </mxCell>
                <mxCell id="268" value="" style="shape=partialRectangle;html=1;whiteSpace=wrap;connectable=0;top=1;left=1;bottom=1;right=1;overflow=hidden;fillColor=#FFE45E;strokeColor=#FF6392;fontColor=#5AA9E6;" parent="265" vertex="1">
                    <mxGeometry x="93" width="47" height="40" as="geometry"/>
                </mxCell>
                <mxCell id="269" style="rounded=0;orthogonalLoop=1;jettySize=auto;html=1;exitX=0.159;exitY=0.995;exitDx=0;exitDy=0;exitPerimeter=0;entryX=0.5;entryY=0;entryDx=0;entryDy=0;strokeColor=#FF6392;fontColor=#5AA9E6;" parent="ylJ7pE1yGz0sWO5ydy1k-675" source="265" target="270" edge="1">
                    <mxGeometry x="-5" y="-320" as="geometry">
                        <mxPoint x="85" y="204" as="sourcePoint"/>
                        <mxPoint x="105" y="214" as="targetPoint"/>
                    </mxGeometry>
                </mxCell>
                <mxCell id="270" value="P=1, max_size=2" style="shape=table;startSize=40;container=1;collapsible=0;childLayout=tableLayout;fontStyle=1;align=center;strokeColor=#005700;strokeWidth=1;fillColor=#008a00;fontColor=#ffffff;" parent="ylJ7pE1yGz0sWO5ydy1k-675" vertex="1">
                    <mxGeometry y="210" width="140" height="80" as="geometry"/>
                </mxCell>
                <mxCell id="271" value="" style="shape=partialRectangle;html=1;whiteSpace=wrap;collapsible=0;dropTarget=0;pointerEvents=0;fillColor=none;top=0;left=0;bottom=0;right=0;points=[[0,0.5],[1,0.5]];portConstraint=eastwest;strokeColor=#FF6392;fontColor=#5AA9E6;" parent="270" vertex="1">
                    <mxGeometry y="40" width="140" height="40" as="geometry"/>
                </mxCell>
                <mxCell id="272" value="1" style="shape=partialRectangle;html=1;whiteSpace=wrap;connectable=0;top=1;left=1;bottom=1;right=1;overflow=hidden;fillColor=#FFE45E;strokeColor=#FF6392;fontColor=#5AA9E6;" parent="271" vertex="1">
                    <mxGeometry width="70" height="40" as="geometry"/>
                </mxCell>
                <mxCell id="273" value="" style="shape=partialRectangle;html=1;whiteSpace=wrap;connectable=0;top=1;left=1;bottom=1;right=1;overflow=hidden;fillColor=#FFE45E;strokeColor=#FF6392;fontColor=#5AA9E6;" parent="271" vertex="1">
                    <mxGeometry x="70" width="70" height="40" as="geometry"/>
                </mxCell>
                <mxCell id="274" value="P=2, max_size=2" style="shape=table;startSize=40;container=1;collapsible=0;childLayout=tableLayout;fontStyle=1;align=center;strokeColor=#005700;strokeWidth=1;fillColor=#008a00;fontColor=#ffffff;" parent="ylJ7pE1yGz0sWO5ydy1k-675" vertex="1">
                    <mxGeometry x="160" y="210" width="140" height="80" as="geometry"/>
                </mxCell>
                <mxCell id="275" value="" style="shape=partialRectangle;html=1;whiteSpace=wrap;collapsible=0;dropTarget=0;pointerEvents=0;fillColor=none;top=0;left=0;bottom=0;right=0;points=[[0,0.5],[1,0.5]];portConstraint=eastwest;strokeColor=#FF6392;fontColor=#5AA9E6;" parent="274" vertex="1">
                    <mxGeometry y="40" width="140" height="40" as="geometry"/>
                </mxCell>
                <mxCell id="276" value="2" style="shape=partialRectangle;html=1;whiteSpace=wrap;connectable=0;top=1;left=1;bottom=1;right=1;overflow=hidden;fillColor=#FFE45E;strokeColor=#FF6392;fontColor=#5AA9E6;" parent="275" vertex="1">
                    <mxGeometry width="70" height="40" as="geometry"/>
                </mxCell>
                <mxCell id="277" value="" style="shape=partialRectangle;html=1;whiteSpace=wrap;connectable=0;top=1;left=1;bottom=1;right=1;overflow=hidden;fillColor=#FFE45E;strokeColor=#FF6392;fontColor=#5AA9E6;" parent="275" vertex="1">
                    <mxGeometry x="70" width="70" height="40" as="geometry"/>
                </mxCell>
                <mxCell id="656" style="edgeStyle=none;rounded=0;orthogonalLoop=1;jettySize=auto;html=1;exitX=1;exitY=0.25;exitDx=0;exitDy=0;entryX=0;entryY=0.25;entryDx=0;entryDy=0;labelBackgroundColor=none;strokeColor=#FF6392;fontColor=#5AA9E6;" parent="ylJ7pE1yGz0sWO5ydy1k-675" source="270" target="274" edge="1">
                    <mxGeometry relative="1" as="geometry"/>
                </mxCell>
                <mxCell id="278" style="rounded=0;orthogonalLoop=1;jettySize=auto;html=1;entryX=0.5;entryY=0;entryDx=0;entryDy=0;exitX=0.5;exitY=1.005;exitDx=0;exitDy=0;exitPerimeter=0;strokeColor=#FF6392;fontColor=#5AA9E6;" parent="ylJ7pE1yGz0sWO5ydy1k-675" source="265" target="274" edge="1">
                    <mxGeometry x="-5" y="-320" as="geometry">
                        <mxPoint x="215" y="204" as="sourcePoint"/>
                        <mxPoint x="75" y="254" as="targetPoint"/>
                    </mxGeometry>
                </mxCell>
                <mxCell id="279" value="P=4, max_size=2" style="shape=table;startSize=40;container=1;collapsible=0;childLayout=tableLayout;fontStyle=1;align=center;strokeColor=#005700;strokeWidth=1;fillColor=#008a00;fontColor=#ffffff;" parent="ylJ7pE1yGz0sWO5ydy1k-675" vertex="1">
                    <mxGeometry x="340" y="210" width="140" height="80" as="geometry"/>
                </mxCell>
                <mxCell id="280" value="" style="shape=partialRectangle;html=1;whiteSpace=wrap;collapsible=0;dropTarget=0;pointerEvents=0;fillColor=none;top=0;left=0;bottom=0;right=0;points=[[0,0.5],[1,0.5]];portConstraint=eastwest;strokeColor=#FF6392;fontColor=#5AA9E6;" parent="279" vertex="1">
                    <mxGeometry y="40" width="140" height="40" as="geometry"/>
                </mxCell>
                <mxCell id="281" value="3" style="shape=partialRectangle;html=1;whiteSpace=wrap;connectable=0;top=1;left=1;bottom=1;right=1;overflow=hidden;fillColor=#FFE45E;strokeColor=#FF6392;fontColor=#5AA9E6;" parent="280" vertex="1">
                    <mxGeometry width="70" height="40" as="geometry"/>
                </mxCell>
                <mxCell id="282" value="" style="shape=partialRectangle;html=1;whiteSpace=wrap;connectable=0;top=1;left=1;bottom=1;right=1;overflow=hidden;fillColor=#FFE45E;strokeColor=#FF6392;fontColor=#5AA9E6;" parent="280" vertex="1">
                    <mxGeometry x="70" width="70" height="40" as="geometry"/>
                </mxCell>
                <mxCell id="658" style="edgeStyle=none;rounded=0;orthogonalLoop=1;jettySize=auto;html=1;exitX=1;exitY=0.25;exitDx=0;exitDy=0;entryX=0;entryY=0.25;entryDx=0;entryDy=0;labelBackgroundColor=none;strokeColor=#FF6392;fontColor=#5AA9E6;" parent="ylJ7pE1yGz0sWO5ydy1k-675" source="274" target="279" edge="1">
                    <mxGeometry relative="1" as="geometry"/>
                </mxCell>
                <mxCell id="284" value="P=5, max_size=2" style="shape=table;startSize=40;container=1;collapsible=0;childLayout=tableLayout;fontStyle=1;align=center;strokeColor=#005700;strokeWidth=1;fillColor=#008a00;fontColor=#ffffff;" parent="ylJ7pE1yGz0sWO5ydy1k-675" vertex="1">
                    <mxGeometry x="500" y="210" width="140" height="80" as="geometry"/>
                </mxCell>
                <mxCell id="285" value="" style="shape=partialRectangle;html=1;whiteSpace=wrap;collapsible=0;dropTarget=0;pointerEvents=0;fillColor=none;top=0;left=0;bottom=0;right=0;points=[[0,0.5],[1,0.5]];portConstraint=eastwest;strokeColor=#FF6392;fontColor=#5AA9E6;" parent="284" vertex="1">
                    <mxGeometry y="40" width="140" height="40" as="geometry"/>
                </mxCell>
                <mxCell id="286" value="4" style="shape=partialRectangle;html=1;whiteSpace=wrap;connectable=0;top=1;left=1;bottom=1;right=1;overflow=hidden;fillColor=#FFE45E;strokeColor=#FF6392;fontColor=#5AA9E6;" parent="285" vertex="1">
                    <mxGeometry width="70" height="40" as="geometry"/>
                </mxCell>
                <mxCell id="287" value="" style="shape=partialRectangle;html=1;whiteSpace=wrap;connectable=0;top=1;left=1;bottom=1;right=1;overflow=hidden;fillColor=#FFE45E;strokeColor=#FF6392;fontColor=#5AA9E6;" parent="285" vertex="1">
                    <mxGeometry x="70" width="70" height="40" as="geometry"/>
                </mxCell>
                <mxCell id="657" style="edgeStyle=none;rounded=0;orthogonalLoop=1;jettySize=auto;html=1;exitX=1;exitY=0.25;exitDx=0;exitDy=0;entryX=0;entryY=0.25;entryDx=0;entryDy=0;labelBackgroundColor=none;strokeColor=#FF6392;fontColor=#5AA9E6;" parent="ylJ7pE1yGz0sWO5ydy1k-675" source="279" target="284" edge="1">
                    <mxGeometry relative="1" as="geometry"/>
                </mxCell>
                <mxCell id="288" value="P=6,Â max_size=3" style="shape=table;startSize=40;container=1;collapsible=0;childLayout=tableLayout;fontStyle=1;align=center;strokeColor=#006EAF;strokeWidth=1;fillColor=#1ba1e2;fontColor=#ffffff;" parent="ylJ7pE1yGz0sWO5ydy1k-675" vertex="1">
                    <mxGeometry x="410" y="90" width="140" height="80" as="geometry"/>
                </mxCell>
                <mxCell id="289" value="" style="shape=partialRectangle;html=1;whiteSpace=wrap;collapsible=0;dropTarget=0;pointerEvents=0;fillColor=none;top=0;left=0;bottom=0;right=0;points=[[0,0.5],[1,0.5]];portConstraint=eastwest;strokeColor=#FF6392;fontColor=#5AA9E6;" parent="288" vertex="1">
                    <mxGeometry y="40" width="140" height="40" as="geometry"/>
                </mxCell>
                <mxCell id="290" value="" style="shape=partialRectangle;html=1;whiteSpace=wrap;connectable=0;top=1;left=1;bottom=1;right=1;overflow=hidden;fillColor=#FFE45E;strokeColor=#FF6392;fontColor=#5AA9E6;" parent="289" vertex="1">
                    <mxGeometry width="47" height="40" as="geometry"/>
                </mxCell>
                <mxCell id="291" value="4" style="shape=partialRectangle;html=1;whiteSpace=wrap;connectable=0;top=1;left=1;bottom=1;right=1;overflow=hidden;fillColor=#FFE45E;strokeColor=#FF6392;fontColor=#5AA9E6;" parent="289" vertex="1">
                    <mxGeometry x="47" width="46" height="40" as="geometry"/>
                </mxCell>
                <mxCell id="292" value="" style="shape=partialRectangle;html=1;whiteSpace=wrap;connectable=0;top=1;left=1;bottom=1;right=1;overflow=hidden;fillColor=#FFE45E;strokeColor=#FF6392;fontColor=#5AA9E6;" parent="289" vertex="1">
                    <mxGeometry x="93" width="47" height="40" as="geometry"/>
                </mxCell>
                <mxCell id="293" value="P=7,Â max_size=3" style="shape=table;startSize=40;container=1;collapsible=0;childLayout=tableLayout;fontStyle=1;align=center;strokeColor=#006EAF;strokeWidth=1;fillColor=#1ba1e2;fontColor=#ffffff;" parent="ylJ7pE1yGz0sWO5ydy1k-675" vertex="1">
                    <mxGeometry x="260" width="140" height="80" as="geometry"/>
                </mxCell>
                <mxCell id="294" value="" style="shape=partialRectangle;html=1;whiteSpace=wrap;collapsible=0;dropTarget=0;pointerEvents=0;fillColor=none;top=0;left=0;bottom=0;right=0;points=[[0,0.5],[1,0.5]];portConstraint=eastwest;strokeColor=#FF6392;fontColor=#5AA9E6;" parent="293" vertex="1">
                    <mxGeometry y="40" width="140" height="40" as="geometry"/>
                </mxCell>
                <mxCell id="295" value="" style="shape=partialRectangle;html=1;whiteSpace=wrap;connectable=0;top=1;left=1;bottom=1;right=1;overflow=hidden;fillColor=#FFE45E;strokeColor=#FF6392;fontColor=#5AA9E6;" parent="294" vertex="1">
                    <mxGeometry width="47" height="40" as="geometry"/>
                </mxCell>
                <mxCell id="296" value="3" style="shape=partialRectangle;html=1;whiteSpace=wrap;connectable=0;top=1;left=1;bottom=1;right=1;overflow=hidden;fillColor=#FFE45E;strokeColor=#FF6392;fontColor=#5AA9E6;" parent="294" vertex="1">
                    <mxGeometry x="47" width="46" height="40" as="geometry"/>
                </mxCell>
                <mxCell id="297" value="" style="shape=partialRectangle;html=1;whiteSpace=wrap;connectable=0;top=1;left=1;bottom=1;right=1;overflow=hidden;fillColor=#FFE45E;strokeColor=#FF6392;fontColor=#5AA9E6;" parent="294" vertex="1">
                    <mxGeometry x="93" width="47" height="40" as="geometry"/>
                </mxCell>
                <mxCell id="298" style="rounded=0;orthogonalLoop=1;jettySize=auto;html=1;entryX=0.5;entryY=0;entryDx=0;entryDy=0;exitX=0.162;exitY=0.992;exitDx=0;exitDy=0;exitPerimeter=0;strokeColor=#FF6392;fontColor=#5AA9E6;" parent="ylJ7pE1yGz0sWO5ydy1k-675" source="294" target="264" edge="1">
                    <mxGeometry x="-5" y="-320" as="geometry">
                        <mxPoint x="305" y="139.80000000000018" as="sourcePoint"/>
                        <mxPoint x="407.96000000000004" y="180" as="targetPoint"/>
                    </mxGeometry>
                </mxCell>
                <mxCell id="299" style="rounded=0;orthogonalLoop=1;jettySize=auto;html=1;entryX=0.5;entryY=0;entryDx=0;entryDy=0;exitX=0.496;exitY=1.001;exitDx=0;exitDy=0;exitPerimeter=0;strokeColor=#FF6392;fontColor=#5AA9E6;" parent="ylJ7pE1yGz0sWO5ydy1k-675" source="294" target="288" edge="1">
                    <mxGeometry x="-5" y="-320" as="geometry">
                        <mxPoint x="335" y="90" as="sourcePoint"/>
                        <mxPoint x="437.96000000000004" y="130.20000000000005" as="targetPoint"/>
                    </mxGeometry>
                </mxCell>
                <mxCell id="300" style="rounded=0;orthogonalLoop=1;jettySize=auto;html=1;entryX=0.5;entryY=0;entryDx=0;entryDy=0;exitX=0.16;exitY=0.998;exitDx=0;exitDy=0;exitPerimeter=0;strokeColor=#FF6392;fontColor=#5AA9E6;" parent="ylJ7pE1yGz0sWO5ydy1k-675" source="289" target="279" edge="1">
                    <mxGeometry x="-5" y="-320" as="geometry">
                        <mxPoint x="505" y="210" as="sourcePoint"/>
                        <mxPoint x="485" y="220.20000000000005" as="targetPoint"/>
                    </mxGeometry>
                </mxCell>
                <mxCell id="301" style="rounded=0;orthogonalLoop=1;jettySize=auto;html=1;entryX=0.5;entryY=0;entryDx=0;entryDy=0;exitX=0.504;exitY=1.001;exitDx=0;exitDy=0;exitPerimeter=0;strokeColor=#FF6392;fontColor=#5AA9E6;" parent="ylJ7pE1yGz0sWO5ydy1k-675" source="289" target="284" edge="1">
                    <mxGeometry x="-5" y="-320" as="geometry">
                        <mxPoint x="472.4000000000001" y="213.92000000000007" as="sourcePoint"/>
                        <mxPoint x="455" y="254" as="targetPoint"/>
                    </mxGeometry>
                </mxCell>
                <mxCell id="ylJ7pE1yGz0sWO5ydy1k-677" value="" style="group" vertex="1" connectable="0" parent="1">
                    <mxGeometry x="300" y="10" width="300" height="200" as="geometry"/>
                </mxCell>
                <mxCell id="159" value="P=2, max_size=2" style="shape=table;startSize=40;container=1;collapsible=0;childLayout=tableLayout;fontStyle=1;align=center;strokeColor=#005700;strokeWidth=1;fillColor=#008a00;fontColor=#ffffff;" parent="ylJ7pE1yGz0sWO5ydy1k-677" vertex="1">
                    <mxGeometry x="160" y="120" width="140" height="80" as="geometry"/>
                </mxCell>
                <mxCell id="160" value="" style="shape=partialRectangle;html=1;whiteSpace=wrap;collapsible=0;dropTarget=0;pointerEvents=0;fillColor=none;top=0;left=0;bottom=0;right=0;points=[[0,0.5],[1,0.5]];portConstraint=eastwest;strokeColor=#FF6392;fontColor=#5AA9E6;" parent="159" vertex="1">
                    <mxGeometry y="40" width="140" height="40" as="geometry"/>
                </mxCell>
                <mxCell id="161" value="2" style="shape=partialRectangle;html=1;whiteSpace=wrap;connectable=0;top=1;left=1;bottom=1;right=1;overflow=hidden;fillColor=#FFE45E;strokeColor=#FF6392;fontColor=#5AA9E6;" parent="160" vertex="1">
                    <mxGeometry width="70" height="40" as="geometry"/>
                </mxCell>
                <mxCell id="162" value="" style="shape=partialRectangle;html=1;whiteSpace=wrap;connectable=0;top=1;left=1;bottom=1;right=1;overflow=hidden;fillColor=#FFE45E;strokeColor=#FF6392;fontColor=#5AA9E6;" parent="160" vertex="1">
                    <mxGeometry x="70" width="70" height="40" as="geometry"/>
                </mxCell>
                <mxCell id="671" style="edgeStyle=none;rounded=0;orthogonalLoop=1;jettySize=auto;html=1;exitX=1;exitY=0.25;exitDx=0;exitDy=0;entryX=0;entryY=0.25;entryDx=0;entryDy=0;labelBackgroundColor=none;strokeColor=#FF6392;fontColor=#5AA9E6;" parent="ylJ7pE1yGz0sWO5ydy1k-677" source="154" target="159" edge="1">
                    <mxGeometry x="-510" y="-180" as="geometry"/>
                </mxCell>
                <mxCell id="134" value="P=3, max_size=3" style="shape=table;startSize=40;container=1;collapsible=0;childLayout=tableLayout;fontStyle=1;align=center;strokeColor=#006EAF;strokeWidth=1;fillColor=#1ba1e2;fontColor=#ffffff;" parent="ylJ7pE1yGz0sWO5ydy1k-677" vertex="1">
                    <mxGeometry x="75" width="140" height="80" as="geometry"/>
                </mxCell>
                <mxCell id="135" value="" style="shape=partialRectangle;html=1;whiteSpace=wrap;collapsible=0;dropTarget=0;pointerEvents=0;fillColor=none;top=0;left=0;bottom=0;right=0;points=[[0,0.5],[1,0.5]];portConstraint=eastwest;strokeColor=#FF6392;fontColor=#5AA9E6;" parent="134" vertex="1">
                    <mxGeometry y="40" width="140" height="40" as="geometry"/>
                </mxCell>
                <mxCell id="136" value="" style="shape=partialRectangle;html=1;whiteSpace=wrap;connectable=0;top=1;left=1;bottom=1;right=1;overflow=hidden;fillColor=#FFE45E;strokeColor=#FF6392;fontColor=#5AA9E6;" parent="135" vertex="1">
                    <mxGeometry width="47" height="40" as="geometry"/>
                </mxCell>
                <mxCell id="137" value="2" style="shape=partialRectangle;html=1;whiteSpace=wrap;connectable=0;top=1;left=1;bottom=1;right=1;overflow=hidden;fillColor=#FFE45E;strokeColor=#FF6392;fontColor=#5AA9E6;" parent="135" vertex="1">
                    <mxGeometry x="47" width="46" height="40" as="geometry"/>
                </mxCell>
                <mxCell id="138" style="shape=partialRectangle;html=1;whiteSpace=wrap;connectable=0;top=1;left=1;bottom=1;right=1;overflow=hidden;fillColor=#FFE45E;strokeColor=#FF6392;fontColor=#5AA9E6;" parent="135" vertex="1">
                    <mxGeometry x="93" width="47" height="40" as="geometry"/>
                </mxCell>
                <mxCell id="158" style="rounded=0;orthogonalLoop=1;jettySize=auto;html=1;exitX=0.159;exitY=0.999;exitDx=0;exitDy=0;exitPerimeter=0;entryX=0.5;entryY=0;entryDx=0;entryDy=0;strokeColor=#FF6392;fontColor=#5AA9E6;" parent="ylJ7pE1yGz0sWO5ydy1k-677" source="135" target="154" edge="1">
                    <mxGeometry y="-170" as="geometry">
                        <mxPoint x="90" y="80" as="sourcePoint"/>
                        <mxPoint x="110" y="90" as="targetPoint"/>
                    </mxGeometry>
                </mxCell>
                <mxCell id="154" value="P=1, max_size=2" style="shape=table;startSize=40;container=1;collapsible=0;childLayout=tableLayout;fontStyle=1;align=center;strokeColor=#005700;strokeWidth=1;fillColor=#008a00;fontColor=#ffffff;" parent="ylJ7pE1yGz0sWO5ydy1k-677" vertex="1">
                    <mxGeometry y="120" width="140" height="80" as="geometry"/>
                </mxCell>
                <mxCell id="155" value="" style="shape=partialRectangle;html=1;whiteSpace=wrap;collapsible=0;dropTarget=0;pointerEvents=0;fillColor=none;top=0;left=0;bottom=0;right=0;points=[[0,0.5],[1,0.5]];portConstraint=eastwest;strokeColor=#FF6392;fontColor=#5AA9E6;" parent="154" vertex="1">
                    <mxGeometry y="40" width="140" height="40" as="geometry"/>
                </mxCell>
                <mxCell id="156" value="1" style="shape=partialRectangle;html=1;whiteSpace=wrap;connectable=0;top=1;left=1;bottom=1;right=1;overflow=hidden;fillColor=#FFE45E;strokeColor=#FF6392;fontColor=#5AA9E6;" parent="155" vertex="1">
                    <mxGeometry width="70" height="40" as="geometry"/>
                </mxCell>
                <mxCell id="157" value="" style="shape=partialRectangle;html=1;whiteSpace=wrap;connectable=0;top=1;left=1;bottom=1;right=1;overflow=hidden;fillColor=#FFE45E;strokeColor=#FF6392;fontColor=#5AA9E6;" parent="155" vertex="1">
                    <mxGeometry x="70" width="70" height="40" as="geometry"/>
                </mxCell>
                <mxCell id="163" style="rounded=0;orthogonalLoop=1;jettySize=auto;html=1;entryX=0.5;entryY=0;entryDx=0;entryDy=0;exitX=0.5;exitY=1.005;exitDx=0;exitDy=0;exitPerimeter=0;strokeColor=#FF6392;fontColor=#5AA9E6;" parent="ylJ7pE1yGz0sWO5ydy1k-677" source="135" target="159" edge="1">
                    <mxGeometry y="-170" as="geometry">
                        <mxPoint x="220" y="80" as="sourcePoint"/>
                        <mxPoint x="79.99999999999989" y="130" as="targetPoint"/>
                    </mxGeometry>
                </mxCell>
                <mxCell id="ylJ7pE1yGz0sWO5ydy1k-678" value="" style="group" vertex="1" connectable="0" parent="1">
                    <mxGeometry x="730" y="510" width="640" height="290" as="geometry"/>
                </mxCell>
                <mxCell id="528" value="P=3,Â max_size=3" style="shape=table;startSize=40;container=1;collapsible=0;childLayout=tableLayout;fontStyle=1;align=center;strokeColor=#006EAF;strokeWidth=1;fillColor=#1ba1e2;fontColor=#ffffff;" parent="ylJ7pE1yGz0sWO5ydy1k-678" vertex="1">
                    <mxGeometry x="110" y="90" width="140" height="80" as="geometry"/>
                </mxCell>
                <mxCell id="529" value="" style="shape=partialRectangle;html=1;whiteSpace=wrap;collapsible=0;dropTarget=0;pointerEvents=0;fillColor=none;top=0;left=0;bottom=0;right=0;points=[[0,0.5],[1,0.5]];portConstraint=eastwest;strokeColor=#FF6392;fontColor=#5AA9E6;" parent="528" vertex="1">
                    <mxGeometry y="40" width="140" height="40" as="geometry"/>
                </mxCell>
                <mxCell id="530" value="" style="shape=partialRectangle;html=1;whiteSpace=wrap;connectable=0;top=1;left=1;bottom=1;right=1;overflow=hidden;fillColor=#FFE45E;strokeColor=#FF6392;fontColor=#5AA9E6;" parent="529" vertex="1">
                    <mxGeometry width="47" height="40" as="geometry"/>
                </mxCell>
                <mxCell id="531" value="2" style="shape=partialRectangle;html=1;whiteSpace=wrap;connectable=0;top=1;left=1;bottom=1;right=1;overflow=hidden;fillColor=#FFE45E;strokeColor=#FF6392;fontColor=#5AA9E6;" parent="529" vertex="1">
                    <mxGeometry x="47" width="46" height="40" as="geometry"/>
                </mxCell>
                <mxCell id="532" value="" style="shape=partialRectangle;html=1;whiteSpace=wrap;connectable=0;top=1;left=1;bottom=1;right=1;overflow=hidden;fillColor=#FFE45E;strokeColor=#FF6392;fontColor=#5AA9E6;" parent="529" vertex="1">
                    <mxGeometry x="93" width="47" height="40" as="geometry"/>
                </mxCell>
                <mxCell id="533" style="rounded=0;orthogonalLoop=1;jettySize=auto;html=1;exitX=0.159;exitY=0.995;exitDx=0;exitDy=0;exitPerimeter=0;entryX=0.5;entryY=0;entryDx=0;entryDy=0;strokeColor=#FF6392;fontColor=#5AA9E6;" parent="ylJ7pE1yGz0sWO5ydy1k-678" source="529" target="534" edge="1">
                    <mxGeometry x="-1265" y="-330" as="geometry">
                        <mxPoint x="-1175" y="194" as="sourcePoint"/>
                        <mxPoint x="-1155" y="204" as="targetPoint"/>
                    </mxGeometry>
                </mxCell>
                <mxCell id="534" value="P=1, max_size=2" style="shape=table;startSize=40;container=1;collapsible=0;childLayout=tableLayout;fontStyle=1;align=center;strokeColor=#005700;strokeWidth=1;fillColor=#008a00;fontColor=#ffffff;" parent="ylJ7pE1yGz0sWO5ydy1k-678" vertex="1">
                    <mxGeometry y="210" width="140" height="80" as="geometry"/>
                </mxCell>
                <mxCell id="535" value="" style="shape=partialRectangle;html=1;whiteSpace=wrap;collapsible=0;dropTarget=0;pointerEvents=0;fillColor=none;top=0;left=0;bottom=0;right=0;points=[[0,0.5],[1,0.5]];portConstraint=eastwest;strokeColor=#FF6392;fontColor=#5AA9E6;" parent="534" vertex="1">
                    <mxGeometry y="40" width="140" height="40" as="geometry"/>
                </mxCell>
                <mxCell id="536" value="1" style="shape=partialRectangle;html=1;whiteSpace=wrap;connectable=0;top=1;left=1;bottom=1;right=1;overflow=hidden;fillColor=#FFE45E;strokeColor=#FF6392;fontColor=#5AA9E6;" parent="535" vertex="1">
                    <mxGeometry width="70" height="40" as="geometry"/>
                </mxCell>
                <mxCell id="537" value="" style="shape=partialRectangle;html=1;whiteSpace=wrap;connectable=0;top=1;left=1;bottom=1;right=1;overflow=hidden;fillColor=#FFE45E;strokeColor=#FF6392;fontColor=#5AA9E6;" parent="535" vertex="1">
                    <mxGeometry x="70" width="70" height="40" as="geometry"/>
                </mxCell>
                <mxCell id="538" value="P=2, max_size=2" style="shape=table;startSize=40;container=1;collapsible=0;childLayout=tableLayout;fontStyle=1;align=center;strokeColor=#005700;strokeWidth=1;fillColor=#008a00;fontColor=#ffffff;" parent="ylJ7pE1yGz0sWO5ydy1k-678" vertex="1">
                    <mxGeometry x="160" y="210" width="140" height="80" as="geometry"/>
                </mxCell>
                <mxCell id="539" value="" style="shape=partialRectangle;html=1;whiteSpace=wrap;collapsible=0;dropTarget=0;pointerEvents=0;fillColor=none;top=0;left=0;bottom=0;right=0;points=[[0,0.5],[1,0.5]];portConstraint=eastwest;strokeColor=#FF6392;fontColor=#5AA9E6;" parent="538" vertex="1">
                    <mxGeometry y="40" width="140" height="40" as="geometry"/>
                </mxCell>
                <mxCell id="540" value="2" style="shape=partialRectangle;html=1;whiteSpace=wrap;connectable=0;top=1;left=1;bottom=1;right=1;overflow=hidden;fillColor=#FFE45E;strokeColor=#FF6392;fontColor=#5AA9E6;" parent="539" vertex="1">
                    <mxGeometry width="70" height="40" as="geometry"/>
                </mxCell>
                <mxCell id="541" value="" style="shape=partialRectangle;html=1;whiteSpace=wrap;connectable=0;top=1;left=1;bottom=1;right=1;overflow=hidden;fillColor=#FFE45E;strokeColor=#FF6392;fontColor=#5AA9E6;" parent="539" vertex="1">
                    <mxGeometry x="70" width="70" height="40" as="geometry"/>
                </mxCell>
                <mxCell id="659" style="edgeStyle=none;rounded=0;orthogonalLoop=1;jettySize=auto;html=1;exitX=1;exitY=0.25;exitDx=0;exitDy=0;entryX=0;entryY=0.25;entryDx=0;entryDy=0;labelBackgroundColor=none;strokeColor=#FF6392;fontColor=#5AA9E6;" parent="ylJ7pE1yGz0sWO5ydy1k-678" source="534" target="538" edge="1">
                    <mxGeometry relative="1" as="geometry"/>
                </mxCell>
                <mxCell id="542" style="rounded=0;orthogonalLoop=1;jettySize=auto;html=1;entryX=0.5;entryY=0;entryDx=0;entryDy=0;exitX=0.5;exitY=1.005;exitDx=0;exitDy=0;exitPerimeter=0;strokeColor=#FF6392;fontColor=#5AA9E6;" parent="ylJ7pE1yGz0sWO5ydy1k-678" source="529" target="538" edge="1">
                    <mxGeometry x="-1265" y="-330" as="geometry">
                        <mxPoint x="-1045" y="194" as="sourcePoint"/>
                        <mxPoint x="-1185" y="244" as="targetPoint"/>
                    </mxGeometry>
                </mxCell>
                <mxCell id="543" value="P=4, max_size=2" style="shape=table;startSize=40;container=1;collapsible=0;childLayout=tableLayout;fontStyle=1;align=center;strokeColor=#005700;strokeWidth=1;fillColor=#008a00;fontColor=#ffffff;" parent="ylJ7pE1yGz0sWO5ydy1k-678" vertex="1">
                    <mxGeometry x="340" y="210" width="140" height="80" as="geometry"/>
                </mxCell>
                <mxCell id="544" value="" style="shape=partialRectangle;html=1;whiteSpace=wrap;collapsible=0;dropTarget=0;pointerEvents=0;fillColor=none;top=0;left=0;bottom=0;right=0;points=[[0,0.5],[1,0.5]];portConstraint=eastwest;strokeColor=#FF6392;fontColor=#5AA9E6;" parent="543" vertex="1">
                    <mxGeometry y="40" width="140" height="40" as="geometry"/>
                </mxCell>
                <mxCell id="545" value="3" style="shape=partialRectangle;html=1;whiteSpace=wrap;connectable=0;top=1;left=1;bottom=1;right=1;overflow=hidden;fillColor=#FFE45E;strokeColor=#FF6392;fontColor=#5AA9E6;" parent="544" vertex="1">
                    <mxGeometry width="70" height="40" as="geometry"/>
                </mxCell>
                <mxCell id="546" value="" style="shape=partialRectangle;html=1;whiteSpace=wrap;connectable=0;top=1;left=1;bottom=1;right=1;overflow=hidden;fillColor=#FFE45E;strokeColor=#FF6392;fontColor=#5AA9E6;" parent="544" vertex="1">
                    <mxGeometry x="70" width="70" height="40" as="geometry"/>
                </mxCell>
                <mxCell id="660" style="edgeStyle=none;rounded=0;orthogonalLoop=1;jettySize=auto;html=1;exitX=1;exitY=0.25;exitDx=0;exitDy=0;entryX=0;entryY=0.25;entryDx=0;entryDy=0;labelBackgroundColor=none;strokeColor=#FF6392;fontColor=#5AA9E6;" parent="ylJ7pE1yGz0sWO5ydy1k-678" source="538" target="543" edge="1">
                    <mxGeometry relative="1" as="geometry"/>
                </mxCell>
                <mxCell id="547" value="P=5, max_size=2" style="shape=table;startSize=40;container=1;collapsible=0;childLayout=tableLayout;fontStyle=1;align=center;strokeColor=#005700;strokeWidth=1;fillColor=#008a00;fontColor=#ffffff;" parent="ylJ7pE1yGz0sWO5ydy1k-678" vertex="1">
                    <mxGeometry x="500" y="210" width="140" height="80" as="geometry"/>
                </mxCell>
                <mxCell id="548" value="" style="shape=partialRectangle;html=1;whiteSpace=wrap;collapsible=0;dropTarget=0;pointerEvents=0;fillColor=none;top=0;left=0;bottom=0;right=0;points=[[0,0.5],[1,0.5]];portConstraint=eastwest;strokeColor=#FF6392;fontColor=#5AA9E6;" parent="547" vertex="1">
                    <mxGeometry y="40" width="140" height="40" as="geometry"/>
                </mxCell>
                <mxCell id="549" value="4" style="shape=partialRectangle;html=1;whiteSpace=wrap;connectable=0;top=1;left=1;bottom=1;right=1;overflow=hidden;fillColor=#FFE45E;strokeColor=#FF6392;fontColor=#5AA9E6;" parent="548" vertex="1">
                    <mxGeometry width="70" height="40" as="geometry"/>
                </mxCell>
                <mxCell id="550" value="&lt;font color=&quot;#0000cc&quot;&gt;5&lt;/font&gt;" style="shape=partialRectangle;html=1;whiteSpace=wrap;connectable=0;top=1;left=1;bottom=1;right=1;overflow=hidden;fillColor=#FFE45E;strokeColor=#FF6392;fontColor=#5AA9E6;" parent="548" vertex="1">
                    <mxGeometry x="70" width="70" height="40" as="geometry"/>
                </mxCell>
                <mxCell id="661" style="edgeStyle=none;rounded=0;orthogonalLoop=1;jettySize=auto;html=1;exitX=1;exitY=0.25;exitDx=0;exitDy=0;entryX=0;entryY=0.25;entryDx=0;entryDy=0;labelBackgroundColor=none;strokeColor=#FF6392;fontColor=#5AA9E6;" parent="ylJ7pE1yGz0sWO5ydy1k-678" source="543" target="547" edge="1">
                    <mxGeometry relative="1" as="geometry"/>
                </mxCell>
                <mxCell id="551" value="P=6,Â max_size=3" style="shape=table;startSize=40;container=1;collapsible=0;childLayout=tableLayout;fontStyle=1;align=center;strokeColor=#006EAF;strokeWidth=1;fillColor=#1ba1e2;fontColor=#ffffff;" parent="ylJ7pE1yGz0sWO5ydy1k-678" vertex="1">
                    <mxGeometry x="410" y="90" width="140" height="80" as="geometry"/>
                </mxCell>
                <mxCell id="552" value="" style="shape=partialRectangle;html=1;whiteSpace=wrap;collapsible=0;dropTarget=0;pointerEvents=0;fillColor=none;top=0;left=0;bottom=0;right=0;points=[[0,0.5],[1,0.5]];portConstraint=eastwest;strokeColor=#FF6392;fontColor=#5AA9E6;" parent="551" vertex="1">
                    <mxGeometry y="40" width="140" height="40" as="geometry"/>
                </mxCell>
                <mxCell id="553" value="" style="shape=partialRectangle;html=1;whiteSpace=wrap;connectable=0;top=1;left=1;bottom=1;right=1;overflow=hidden;fillColor=#FFE45E;strokeColor=#FF6392;fontColor=#5AA9E6;" parent="552" vertex="1">
                    <mxGeometry width="47" height="40" as="geometry"/>
                </mxCell>
                <mxCell id="554" value="4" style="shape=partialRectangle;html=1;whiteSpace=wrap;connectable=0;top=1;left=1;bottom=1;right=1;overflow=hidden;fillColor=#FFE45E;strokeColor=#FF6392;fontColor=#5AA9E6;" parent="552" vertex="1">
                    <mxGeometry x="47" width="46" height="40" as="geometry"/>
                </mxCell>
                <mxCell id="555" value="" style="shape=partialRectangle;html=1;whiteSpace=wrap;connectable=0;top=1;left=1;bottom=1;right=1;overflow=hidden;fillColor=#FFE45E;strokeColor=#FF6392;fontColor=#5AA9E6;" parent="552" vertex="1">
                    <mxGeometry x="93" width="47" height="40" as="geometry"/>
                </mxCell>
                <mxCell id="556" value="P=7,Â max_size=3" style="shape=table;startSize=40;container=1;collapsible=0;childLayout=tableLayout;fontStyle=1;align=center;strokeColor=#006EAF;strokeWidth=1;fillColor=#1ba1e2;fontColor=#ffffff;" parent="ylJ7pE1yGz0sWO5ydy1k-678" vertex="1">
                    <mxGeometry x="260" width="140" height="80" as="geometry"/>
                </mxCell>
                <mxCell id="557" value="" style="shape=partialRectangle;html=1;whiteSpace=wrap;collapsible=0;dropTarget=0;pointerEvents=0;fillColor=none;top=0;left=0;bottom=0;right=0;points=[[0,0.5],[1,0.5]];portConstraint=eastwest;strokeColor=#FF6392;fontColor=#5AA9E6;" parent="556" vertex="1">
                    <mxGeometry y="40" width="140" height="40" as="geometry"/>
                </mxCell>
                <mxCell id="558" value="" style="shape=partialRectangle;html=1;whiteSpace=wrap;connectable=0;top=1;left=1;bottom=1;right=1;overflow=hidden;fillColor=#FFE45E;strokeColor=#FF6392;fontColor=#5AA9E6;" parent="557" vertex="1">
                    <mxGeometry width="47" height="40" as="geometry"/>
                </mxCell>
                <mxCell id="559" value="3" style="shape=partialRectangle;html=1;whiteSpace=wrap;connectable=0;top=1;left=1;bottom=1;right=1;overflow=hidden;fillColor=#FFE45E;strokeColor=#FF6392;fontColor=#5AA9E6;" parent="557" vertex="1">
                    <mxGeometry x="47" width="46" height="40" as="geometry"/>
                </mxCell>
                <mxCell id="560" value="" style="shape=partialRectangle;html=1;whiteSpace=wrap;connectable=0;top=1;left=1;bottom=1;right=1;overflow=hidden;fillColor=#FFE45E;strokeColor=#FF6392;fontColor=#5AA9E6;" parent="557" vertex="1">
                    <mxGeometry x="93" width="47" height="40" as="geometry"/>
                </mxCell>
                <mxCell id="561" style="rounded=0;orthogonalLoop=1;jettySize=auto;html=1;entryX=0.5;entryY=0;entryDx=0;entryDy=0;exitX=0.162;exitY=0.992;exitDx=0;exitDy=0;exitPerimeter=0;strokeColor=#FF6392;fontColor=#5AA9E6;" parent="ylJ7pE1yGz0sWO5ydy1k-678" source="557" target="528" edge="1">
                    <mxGeometry x="-1265" y="-330" as="geometry">
                        <mxPoint x="-955" y="129.80000000000018" as="sourcePoint"/>
                        <mxPoint x="-852.04" y="170" as="targetPoint"/>
                    </mxGeometry>
                </mxCell>
                <mxCell id="562" style="rounded=0;orthogonalLoop=1;jettySize=auto;html=1;entryX=0.5;entryY=0;entryDx=0;entryDy=0;exitX=0.496;exitY=1.001;exitDx=0;exitDy=0;exitPerimeter=0;strokeColor=#FF6392;fontColor=#5AA9E6;" parent="ylJ7pE1yGz0sWO5ydy1k-678" source="557" target="551" edge="1">
                    <mxGeometry x="-1265" y="-330" as="geometry">
                        <mxPoint x="-925" y="80" as="sourcePoint"/>
                        <mxPoint x="-822.04" y="120.20000000000005" as="targetPoint"/>
                    </mxGeometry>
                </mxCell>
                <mxCell id="563" style="rounded=0;orthogonalLoop=1;jettySize=auto;html=1;entryX=0.5;entryY=0;entryDx=0;entryDy=0;exitX=0.16;exitY=0.998;exitDx=0;exitDy=0;exitPerimeter=0;strokeColor=#FF6392;fontColor=#5AA9E6;" parent="ylJ7pE1yGz0sWO5ydy1k-678" source="552" target="543" edge="1">
                    <mxGeometry x="-1265" y="-330" as="geometry">
                        <mxPoint x="-755" y="200" as="sourcePoint"/>
                        <mxPoint x="-775" y="210.20000000000005" as="targetPoint"/>
                    </mxGeometry>
                </mxCell>
                <mxCell id="564" style="rounded=0;orthogonalLoop=1;jettySize=auto;html=1;entryX=0.5;entryY=0;entryDx=0;entryDy=0;exitX=0.504;exitY=1.001;exitDx=0;exitDy=0;exitPerimeter=0;strokeColor=#FF6392;fontColor=#5AA9E6;" parent="ylJ7pE1yGz0sWO5ydy1k-678" source="552" target="547" edge="1">
                    <mxGeometry x="-1265" y="-330" as="geometry">
                        <mxPoint x="-787.5999999999999" y="203.92000000000007" as="sourcePoint"/>
                        <mxPoint x="-805" y="244" as="targetPoint"/>
                    </mxGeometry>
                </mxCell>
                <mxCell id="ylJ7pE1yGz0sWO5ydy1k-679" value="" style="group" vertex="1" connectable="0" parent="1">
                    <mxGeometry x="1210" y="30" width="780" height="290" as="geometry"/>
                </mxCell>
                <mxCell id="605" value="P=3,Â max_size=3" style="shape=table;startSize=40;container=1;collapsible=0;childLayout=tableLayout;fontStyle=1;align=center;strokeColor=#006EAF;strokeWidth=1;fillColor=#1ba1e2;fontColor=#ffffff;" parent="ylJ7pE1yGz0sWO5ydy1k-679" vertex="1">
                    <mxGeometry x="170" y="90" width="140" height="80" as="geometry"/>
                </mxCell>
                <mxCell id="606" value="" style="shape=partialRectangle;html=1;whiteSpace=wrap;collapsible=0;dropTarget=0;pointerEvents=0;fillColor=none;top=0;left=0;bottom=0;right=0;points=[[0,0.5],[1,0.5]];portConstraint=eastwest;strokeColor=#FF6392;fontColor=#5AA9E6;" parent="605" vertex="1">
                    <mxGeometry y="40" width="140" height="40" as="geometry"/>
                </mxCell>
                <mxCell id="607" value="" style="shape=partialRectangle;html=1;whiteSpace=wrap;connectable=0;top=1;left=1;bottom=1;right=1;overflow=hidden;fillColor=#FFE45E;strokeColor=#FF6392;fontColor=#5AA9E6;" parent="606" vertex="1">
                    <mxGeometry width="47" height="40" as="geometry"/>
                </mxCell>
                <mxCell id="608" value="2" style="shape=partialRectangle;html=1;whiteSpace=wrap;connectable=0;top=1;left=1;bottom=1;right=1;overflow=hidden;fillColor=#FFE45E;strokeColor=#FF6392;fontColor=#5AA9E6;" parent="606" vertex="1">
                    <mxGeometry x="47" width="46" height="40" as="geometry"/>
                </mxCell>
                <mxCell id="609" value="" style="shape=partialRectangle;html=1;whiteSpace=wrap;connectable=0;top=1;left=1;bottom=1;right=1;overflow=hidden;fillColor=#FFE45E;strokeColor=#FF6392;fontColor=#5AA9E6;" parent="606" vertex="1">
                    <mxGeometry x="93" width="47" height="40" as="geometry"/>
                </mxCell>
                <mxCell id="610" style="rounded=0;orthogonalLoop=1;jettySize=auto;html=1;exitX=0.159;exitY=0.995;exitDx=0;exitDy=0;exitPerimeter=0;entryX=0.5;entryY=0;entryDx=0;entryDy=0;strokeColor=#FF6392;fontColor=#5AA9E6;" parent="ylJ7pE1yGz0sWO5ydy1k-679" source="606" target="611" edge="1">
                    <mxGeometry x="-1205" y="-330" as="geometry">
                        <mxPoint x="-1115" y="194" as="sourcePoint"/>
                        <mxPoint x="-1095" y="204" as="targetPoint"/>
                    </mxGeometry>
                </mxCell>
                <mxCell id="611" value="P=1, max_size=2" style="shape=table;startSize=40;container=1;collapsible=0;childLayout=tableLayout;fontStyle=1;align=center;strokeColor=#005700;strokeWidth=1;fillColor=#008a00;fontColor=#ffffff;" parent="ylJ7pE1yGz0sWO5ydy1k-679" vertex="1">
                    <mxGeometry y="210" width="140" height="80" as="geometry"/>
                </mxCell>
                <mxCell id="612" value="" style="shape=partialRectangle;html=1;whiteSpace=wrap;collapsible=0;dropTarget=0;pointerEvents=0;fillColor=none;top=0;left=0;bottom=0;right=0;points=[[0,0.5],[1,0.5]];portConstraint=eastwest;strokeColor=#FF6392;fontColor=#5AA9E6;" parent="611" vertex="1">
                    <mxGeometry y="40" width="140" height="40" as="geometry"/>
                </mxCell>
                <mxCell id="613" value="1" style="shape=partialRectangle;html=1;whiteSpace=wrap;connectable=0;top=1;left=1;bottom=1;right=1;overflow=hidden;fillColor=#FFE45E;strokeColor=#FF6392;fontColor=#5AA9E6;" parent="612" vertex="1">
                    <mxGeometry width="70" height="40" as="geometry"/>
                </mxCell>
                <mxCell id="614" value="" style="shape=partialRectangle;html=1;whiteSpace=wrap;connectable=0;top=1;left=1;bottom=1;right=1;overflow=hidden;fillColor=#FFE45E;strokeColor=#FF6392;fontColor=#5AA9E6;" parent="612" vertex="1">
                    <mxGeometry x="70" width="70" height="40" as="geometry"/>
                </mxCell>
                <mxCell id="615" value="P=2, max_size=2" style="shape=table;startSize=40;container=1;collapsible=0;childLayout=tableLayout;fontStyle=1;align=center;strokeColor=#005700;strokeWidth=1;fillColor=#008a00;fontColor=#ffffff;" parent="ylJ7pE1yGz0sWO5ydy1k-679" vertex="1">
                    <mxGeometry x="160" y="210" width="140" height="80" as="geometry"/>
                </mxCell>
                <mxCell id="616" value="" style="shape=partialRectangle;html=1;whiteSpace=wrap;collapsible=0;dropTarget=0;pointerEvents=0;fillColor=none;top=0;left=0;bottom=0;right=0;points=[[0,0.5],[1,0.5]];portConstraint=eastwest;strokeColor=#FF6392;fontColor=#5AA9E6;" parent="615" vertex="1">
                    <mxGeometry y="40" width="140" height="40" as="geometry"/>
                </mxCell>
                <mxCell id="617" value="2" style="shape=partialRectangle;html=1;whiteSpace=wrap;connectable=0;top=1;left=1;bottom=1;right=1;overflow=hidden;fillColor=#FFE45E;strokeColor=#FF6392;fontColor=#5AA9E6;" parent="616" vertex="1">
                    <mxGeometry width="70" height="40" as="geometry"/>
                </mxCell>
                <mxCell id="618" value="" style="shape=partialRectangle;html=1;whiteSpace=wrap;connectable=0;top=1;left=1;bottom=1;right=1;overflow=hidden;fillColor=#FFE45E;strokeColor=#FF6392;fontColor=#5AA9E6;" parent="616" vertex="1">
                    <mxGeometry x="70" width="70" height="40" as="geometry"/>
                </mxCell>
                <mxCell id="662" style="edgeStyle=none;rounded=0;orthogonalLoop=1;jettySize=auto;html=1;exitX=1;exitY=0.25;exitDx=0;exitDy=0;entryX=0;entryY=0.25;entryDx=0;entryDy=0;labelBackgroundColor=none;strokeColor=#FF6392;fontColor=#5AA9E6;" parent="ylJ7pE1yGz0sWO5ydy1k-679" source="611" target="615" edge="1">
                    <mxGeometry x="60" as="geometry"/>
                </mxCell>
                <mxCell id="619" style="rounded=0;orthogonalLoop=1;jettySize=auto;html=1;entryX=0.5;entryY=0;entryDx=0;entryDy=0;exitX=0.5;exitY=1.005;exitDx=0;exitDy=0;exitPerimeter=0;strokeColor=#FF6392;fontColor=#5AA9E6;" parent="ylJ7pE1yGz0sWO5ydy1k-679" source="606" target="615" edge="1">
                    <mxGeometry x="-1205" y="-330" as="geometry">
                        <mxPoint x="-985" y="194" as="sourcePoint"/>
                        <mxPoint x="-1125" y="244" as="targetPoint"/>
                    </mxGeometry>
                </mxCell>
                <mxCell id="620" value="P=4, max_size=2" style="shape=table;startSize=40;container=1;collapsible=0;childLayout=tableLayout;fontStyle=1;align=center;strokeColor=#005700;strokeWidth=1;fillColor=#008a00;fontColor=#ffffff;" parent="ylJ7pE1yGz0sWO5ydy1k-679" vertex="1">
                    <mxGeometry x="320" y="210" width="140" height="80" as="geometry"/>
                </mxCell>
                <mxCell id="621" value="" style="shape=partialRectangle;html=1;whiteSpace=wrap;collapsible=0;dropTarget=0;pointerEvents=0;fillColor=none;top=0;left=0;bottom=0;right=0;points=[[0,0.5],[1,0.5]];portConstraint=eastwest;strokeColor=#FF6392;fontColor=#5AA9E6;" parent="620" vertex="1">
                    <mxGeometry y="40" width="140" height="40" as="geometry"/>
                </mxCell>
                <mxCell id="622" value="3" style="shape=partialRectangle;html=1;whiteSpace=wrap;connectable=0;top=1;left=1;bottom=1;right=1;overflow=hidden;fillColor=#FFE45E;strokeColor=#FF6392;fontColor=#5AA9E6;" parent="621" vertex="1">
                    <mxGeometry width="70" height="40" as="geometry"/>
                </mxCell>
                <mxCell id="623" value="" style="shape=partialRectangle;html=1;whiteSpace=wrap;connectable=0;top=1;left=1;bottom=1;right=1;overflow=hidden;fillColor=#FFE45E;strokeColor=#FF6392;fontColor=#5AA9E6;" parent="621" vertex="1">
                    <mxGeometry x="70" width="70" height="40" as="geometry"/>
                </mxCell>
                <mxCell id="663" style="edgeStyle=none;rounded=0;orthogonalLoop=1;jettySize=auto;html=1;exitX=1;exitY=0.25;exitDx=0;exitDy=0;entryX=0;entryY=0.25;entryDx=0;entryDy=0;labelBackgroundColor=none;strokeColor=#FF6392;fontColor=#5AA9E6;" parent="ylJ7pE1yGz0sWO5ydy1k-679" source="615" target="620" edge="1">
                    <mxGeometry x="60" as="geometry"/>
                </mxCell>
                <mxCell id="624" value="P=5, max_size=2" style="shape=table;startSize=40;container=1;collapsible=0;childLayout=tableLayout;fontStyle=1;align=center;strokeColor=#005700;strokeWidth=1;fillColor=#008a00;fontColor=#ffffff;" parent="ylJ7pE1yGz0sWO5ydy1k-679" vertex="1">
                    <mxGeometry x="480" y="210" width="140" height="80" as="geometry"/>
                </mxCell>
                <mxCell id="625" value="" style="shape=partialRectangle;html=1;whiteSpace=wrap;collapsible=0;dropTarget=0;pointerEvents=0;fillColor=none;top=0;left=0;bottom=0;right=0;points=[[0,0.5],[1,0.5]];portConstraint=eastwest;strokeColor=#FF6392;fontColor=#5AA9E6;" parent="624" vertex="1">
                    <mxGeometry y="40" width="140" height="40" as="geometry"/>
                </mxCell>
                <mxCell id="626" value="4" style="shape=partialRectangle;html=1;whiteSpace=wrap;connectable=0;top=1;left=1;bottom=1;right=1;overflow=hidden;fillColor=#FFE45E;strokeColor=#FF6392;fontColor=#5AA9E6;" parent="625" vertex="1">
                    <mxGeometry width="70" height="40" as="geometry"/>
                </mxCell>
                <mxCell id="627" value="" style="shape=partialRectangle;html=1;whiteSpace=wrap;connectable=0;top=1;left=1;bottom=1;right=1;overflow=hidden;fillColor=#FFE45E;strokeColor=#FF6392;fontColor=#5AA9E6;" parent="625" vertex="1">
                    <mxGeometry x="70" width="70" height="40" as="geometry"/>
                </mxCell>
                <mxCell id="664" style="edgeStyle=none;rounded=0;orthogonalLoop=1;jettySize=auto;html=1;exitX=1;exitY=0.25;exitDx=0;exitDy=0;entryX=0;entryY=0.25;entryDx=0;entryDy=0;labelBackgroundColor=none;strokeColor=#FF6392;fontColor=#5AA9E6;" parent="ylJ7pE1yGz0sWO5ydy1k-679" source="620" target="624" edge="1">
                    <mxGeometry x="60" as="geometry"/>
                </mxCell>
                <mxCell id="628" value="P=6,Â max_size=3" style="shape=table;startSize=40;container=1;collapsible=0;childLayout=tableLayout;fontStyle=1;align=center;strokeColor=#006EAF;strokeWidth=1;fillColor=#1ba1e2;fontColor=#ffffff;" parent="ylJ7pE1yGz0sWO5ydy1k-679" vertex="1">
                    <mxGeometry x="470" y="90" width="140" height="80" as="geometry"/>
                </mxCell>
                <mxCell id="629" value="" style="shape=partialRectangle;html=1;whiteSpace=wrap;collapsible=0;dropTarget=0;pointerEvents=0;fillColor=none;top=0;left=0;bottom=0;right=0;points=[[0,0.5],[1,0.5]];portConstraint=eastwest;strokeColor=#FF6392;fontColor=#5AA9E6;" parent="628" vertex="1">
                    <mxGeometry y="40" width="140" height="40" as="geometry"/>
                </mxCell>
                <mxCell id="630" value="" style="shape=partialRectangle;html=1;whiteSpace=wrap;connectable=0;top=1;left=1;bottom=1;right=1;overflow=hidden;fillColor=#FFE45E;strokeColor=#FF6392;fontColor=#5AA9E6;" parent="629" vertex="1">
                    <mxGeometry width="47" height="40" as="geometry"/>
                </mxCell>
                <mxCell id="631" value="4" style="shape=partialRectangle;html=1;whiteSpace=wrap;connectable=0;top=1;left=1;bottom=1;right=1;overflow=hidden;fillColor=#FFE45E;strokeColor=#FF6392;fontColor=#5AA9E6;" parent="629" vertex="1">
                    <mxGeometry x="47" width="46" height="40" as="geometry"/>
                </mxCell>
                <mxCell id="632" value="5" style="shape=partialRectangle;html=1;whiteSpace=wrap;connectable=0;top=1;left=1;bottom=1;right=1;overflow=hidden;fillColor=#FFE45E;strokeColor=#FF6392;fontColor=#5AA9E6;" parent="629" vertex="1">
                    <mxGeometry x="93" width="47" height="40" as="geometry"/>
                </mxCell>
                <mxCell id="633" value="P=7,Â max_size=3" style="shape=table;startSize=40;container=1;collapsible=0;childLayout=tableLayout;fontStyle=1;align=center;strokeColor=#006EAF;strokeWidth=1;fillColor=#1ba1e2;fontColor=#ffffff;" parent="ylJ7pE1yGz0sWO5ydy1k-679" vertex="1">
                    <mxGeometry x="320" width="140" height="80" as="geometry"/>
                </mxCell>
                <mxCell id="634" value="" style="shape=partialRectangle;html=1;whiteSpace=wrap;collapsible=0;dropTarget=0;pointerEvents=0;fillColor=none;top=0;left=0;bottom=0;right=0;points=[[0,0.5],[1,0.5]];portConstraint=eastwest;strokeColor=#FF6392;fontColor=#5AA9E6;" parent="633" vertex="1">
                    <mxGeometry y="40" width="140" height="40" as="geometry"/>
                </mxCell>
                <mxCell id="635" value="" style="shape=partialRectangle;html=1;whiteSpace=wrap;connectable=0;top=1;left=1;bottom=1;right=1;overflow=hidden;fillColor=#FFE45E;strokeColor=#FF6392;fontColor=#5AA9E6;" parent="634" vertex="1">
                    <mxGeometry width="47" height="40" as="geometry"/>
                </mxCell>
                <mxCell id="636" value="3" style="shape=partialRectangle;html=1;whiteSpace=wrap;connectable=0;top=1;left=1;bottom=1;right=1;overflow=hidden;fillColor=#FFE45E;strokeColor=#FF6392;fontColor=#5AA9E6;" parent="634" vertex="1">
                    <mxGeometry x="47" width="46" height="40" as="geometry"/>
                </mxCell>
                <mxCell id="637" value="" style="shape=partialRectangle;html=1;whiteSpace=wrap;connectable=0;top=1;left=1;bottom=1;right=1;overflow=hidden;fillColor=#FFE45E;strokeColor=#FF6392;fontColor=#5AA9E6;" parent="634" vertex="1">
                    <mxGeometry x="93" width="47" height="40" as="geometry"/>
                </mxCell>
                <mxCell id="638" style="rounded=0;orthogonalLoop=1;jettySize=auto;html=1;entryX=0.5;entryY=0;entryDx=0;entryDy=0;exitX=0.162;exitY=0.992;exitDx=0;exitDy=0;exitPerimeter=0;strokeColor=#FF6392;fontColor=#5AA9E6;" parent="ylJ7pE1yGz0sWO5ydy1k-679" source="634" target="605" edge="1">
                    <mxGeometry x="-1205" y="-330" as="geometry">
                        <mxPoint x="-895" y="129.80000000000018" as="sourcePoint"/>
                        <mxPoint x="-792.04" y="170" as="targetPoint"/>
                    </mxGeometry>
                </mxCell>
                <mxCell id="639" style="rounded=0;orthogonalLoop=1;jettySize=auto;html=1;entryX=0.5;entryY=0;entryDx=0;entryDy=0;exitX=0.496;exitY=1.001;exitDx=0;exitDy=0;exitPerimeter=0;strokeColor=#FF6392;fontColor=#5AA9E6;" parent="ylJ7pE1yGz0sWO5ydy1k-679" source="634" target="628" edge="1">
                    <mxGeometry x="-1205" y="-330" as="geometry">
                        <mxPoint x="-865" y="80" as="sourcePoint"/>
                        <mxPoint x="-762.04" y="120.19999999999982" as="targetPoint"/>
                    </mxGeometry>
                </mxCell>
                <mxCell id="640" style="rounded=0;orthogonalLoop=1;jettySize=auto;html=1;entryX=0.5;entryY=0;entryDx=0;entryDy=0;exitX=0.16;exitY=0.998;exitDx=0;exitDy=0;exitPerimeter=0;strokeColor=#FF6392;fontColor=#5AA9E6;" parent="ylJ7pE1yGz0sWO5ydy1k-679" source="629" target="620" edge="1">
                    <mxGeometry x="-1205" y="-330" as="geometry">
                        <mxPoint x="-695" y="200" as="sourcePoint"/>
                        <mxPoint x="-715" y="210.19999999999982" as="targetPoint"/>
                    </mxGeometry>
                </mxCell>
                <mxCell id="641" style="rounded=0;orthogonalLoop=1;jettySize=auto;html=1;entryX=0.5;entryY=0;entryDx=0;entryDy=0;exitX=0.504;exitY=1.001;exitDx=0;exitDy=0;exitPerimeter=0;strokeColor=#FF6392;fontColor=#5AA9E6;" parent="ylJ7pE1yGz0sWO5ydy1k-679" source="629" target="624" edge="1">
                    <mxGeometry x="-1205" y="-330" as="geometry">
                        <mxPoint x="-727.5999999999999" y="203.92000000000007" as="sourcePoint"/>
                        <mxPoint x="-745" y="244" as="targetPoint"/>
                    </mxGeometry>
                </mxCell>
                <mxCell id="642" value="P=8, max_size=2" style="shape=table;startSize=40;container=1;collapsible=0;childLayout=tableLayout;fontStyle=1;align=center;strokeColor=#005700;strokeWidth=1;fillColor=#008a00;fontColor=#ffffff;" parent="ylJ7pE1yGz0sWO5ydy1k-679" vertex="1">
                    <mxGeometry x="640" y="210" width="140" height="80" as="geometry"/>
                </mxCell>
                <mxCell id="643" value="" style="shape=partialRectangle;html=1;whiteSpace=wrap;collapsible=0;dropTarget=0;pointerEvents=0;fillColor=none;top=0;left=0;bottom=0;right=0;points=[[0,0.5],[1,0.5]];portConstraint=eastwest;strokeColor=#FF6392;fontColor=#5AA9E6;" parent="642" vertex="1">
                    <mxGeometry y="40" width="140" height="40" as="geometry"/>
                </mxCell>
                <mxCell id="644" value="5" style="shape=partialRectangle;html=1;whiteSpace=wrap;connectable=0;top=1;left=1;bottom=1;right=1;overflow=hidden;fillColor=#FFE45E;strokeColor=#FF6392;fontColor=#5AA9E6;" parent="643" vertex="1">
                    <mxGeometry width="70" height="40" as="geometry"/>
                </mxCell>
                <mxCell id="645" value="" style="shape=partialRectangle;html=1;whiteSpace=wrap;connectable=0;top=1;left=1;bottom=1;right=1;overflow=hidden;fillColor=#FFE45E;strokeColor=#FF6392;fontColor=#5AA9E6;" parent="643" vertex="1">
                    <mxGeometry x="70" width="70" height="40" as="geometry"/>
                </mxCell>
                <mxCell id="665" style="edgeStyle=none;rounded=0;orthogonalLoop=1;jettySize=auto;html=1;exitX=1;exitY=0.25;exitDx=0;exitDy=0;entryX=0;entryY=0.25;entryDx=0;entryDy=0;labelBackgroundColor=none;strokeColor=#FF6392;fontColor=#5AA9E6;" parent="ylJ7pE1yGz0sWO5ydy1k-679" source="624" target="642" edge="1">
                    <mxGeometry x="60" as="geometry"/>
                </mxCell>
                <mxCell id="646" style="rounded=0;orthogonalLoop=1;jettySize=auto;html=1;entryX=0.5;entryY=0;entryDx=0;entryDy=0;exitX=0.835;exitY=0.999;exitDx=0;exitDy=0;exitPerimeter=0;strokeColor=#FF6392;fontColor=#5AA9E6;" parent="ylJ7pE1yGz0sWO5ydy1k-679" source="629" target="642" edge="1">
                    <mxGeometry x="-1195" y="-320" as="geometry">
                        <mxPoint x="550.56" y="180.03999999999996" as="sourcePoint"/>
                        <mxPoint x="610" y="220" as="targetPoint"/>
                    </mxGeometry>
                </mxCell>
                <mxCell id="448" value="Split" style="shape=flexArrow;endArrow=classic;html=1;strokeColor=#FF6392;fontColor=#5AA9E6;labelBackgroundColor=none;edgeStyle=orthogonalEdgeStyle;fontSize=20;" parent="1" edge="1">
                    <mxGeometry width="50" height="50" as="geometry">
                        <mxPoint x="1380" y="690" as="sourcePoint"/>
                        <mxPoint x="1600" y="350" as="targetPoint"/>
                        <Array as="points">
                            <mxPoint x="1600" y="690"/>
                            <mxPoint x="1600" y="350"/>
                        </Array>
                        <mxPoint x="110" as="offset"/>
                    </mxGeometry>
                </mxCell>
            </root>
        </mxGraphModel>
    </diagram>
    <diagram name="Insertion" id="I796fo5C_UqsEJukU6AD">
        <mxGraphModel grid="1" gridSize="10" guides="1" tooltips="1" connect="1" arrows="1" page="1" fold="1" pageScale="1" pageWidth="1169" pageHeight="827" math="0" shadow="0">
            <root>
                <mxCell id="NtKaaoDLOek2f3o7ezVE-0"/>
                <mxCell id="NtKaaoDLOek2f3o7ezVE-1" parent="NtKaaoDLOek2f3o7ezVE-0"/>
                <mxCell id="NtKaaoDLOek2f3o7ezVE-2" value="P=1, max_size=2" style="shape=table;startSize=40;container=1;collapsible=0;childLayout=tableLayout;fontStyle=1;align=center;strokeColor=#006EAF;strokeWidth=1;fontColor=#ffffff;fillColor=#1ba1e2;" parent="NtKaaoDLOek2f3o7ezVE-1" vertex="1">
                    <mxGeometry x="120" y="40" width="140" height="80" as="geometry"/>
                </mxCell>
                <mxCell id="NtKaaoDLOek2f3o7ezVE-3" value="" style="shape=partialRectangle;html=1;whiteSpace=wrap;collapsible=0;dropTarget=0;pointerEvents=0;fillColor=none;top=0;left=0;bottom=0;right=0;points=[[0,0.5],[1,0.5]];portConstraint=eastwest;strokeColor=#FF6392;fontColor=#5AA9E6;" parent="NtKaaoDLOek2f3o7ezVE-2" vertex="1">
                    <mxGeometry y="40" width="140" height="40" as="geometry"/>
                </mxCell>
                <mxCell id="NtKaaoDLOek2f3o7ezVE-4" value="1" style="shape=partialRectangle;html=1;whiteSpace=wrap;connectable=0;top=1;left=1;bottom=1;right=1;overflow=hidden;fillColor=#FFE45E;strokeColor=#FF6392;fontColor=#5AA9E6;" parent="NtKaaoDLOek2f3o7ezVE-3" vertex="1">
                    <mxGeometry width="70" height="40" as="geometry"/>
                </mxCell>
                <mxCell id="NtKaaoDLOek2f3o7ezVE-5" value="" style="shape=partialRectangle;html=1;whiteSpace=wrap;connectable=0;top=1;left=1;bottom=1;right=1;overflow=hidden;fillColor=#FFE45E;strokeColor=#FF6392;fontColor=#5AA9E6;" parent="NtKaaoDLOek2f3o7ezVE-3" vertex="1">
                    <mxGeometry x="70" width="70" height="40" as="geometry"/>
                </mxCell>
                <mxCell id="NtKaaoDLOek2f3o7ezVE-6" value="Insert 2" style="shape=flexArrow;endArrow=classic;html=1;labelBackgroundColor=none;strokeColor=#FF6392;fontColor=#5AA9E6;" parent="NtKaaoDLOek2f3o7ezVE-1" edge="1">
                    <mxGeometry width="50" height="50" relative="1" as="geometry">
                        <mxPoint x="189.5000000000001" y="139.9999999999999" as="sourcePoint"/>
                        <mxPoint x="189.5" y="220" as="targetPoint"/>
                    </mxGeometry>
                </mxCell>
                <mxCell id="NtKaaoDLOek2f3o7ezVE-7" value="Insert 3" style="shape=flexArrow;endArrow=classic;html=1;labelBackgroundColor=none;strokeColor=#FF6392;fontColor=#5AA9E6;" parent="NtKaaoDLOek2f3o7ezVE-1" edge="1">
                    <mxGeometry width="50" height="50" relative="1" as="geometry">
                        <mxPoint x="180" y="470" as="sourcePoint"/>
                        <mxPoint x="210" y="560" as="targetPoint"/>
                    </mxGeometry>
                </mxCell>
                <mxCell id="NtKaaoDLOek2f3o7ezVE-8" value="Insert 4" style="shape=flexArrow;endArrow=classic;html=1;labelBackgroundColor=none;strokeColor=#FF6392;fontColor=#5AA9E6;" parent="NtKaaoDLOek2f3o7ezVE-1" edge="1">
                    <mxGeometry width="50" height="50" relative="1" as="geometry">
                        <mxPoint x="430" y="650" as="sourcePoint"/>
                        <mxPoint x="530" y="620" as="targetPoint"/>
                    </mxGeometry>
                </mxCell>
                <mxCell id="NtKaaoDLOek2f3o7ezVE-9" value="Insert 5" style="shape=flexArrow;endArrow=classic;html=1;labelBackgroundColor=none;strokeColor=#FF6392;fontColor=#5AA9E6;" parent="NtKaaoDLOek2f3o7ezVE-1" edge="1">
                    <mxGeometry width="50" height="50" relative="1" as="geometry">
                        <mxPoint x="850.29" y="460" as="sourcePoint"/>
                        <mxPoint x="770" y="370" as="targetPoint"/>
                    </mxGeometry>
                </mxCell>
                <mxCell id="NtKaaoDLOek2f3o7ezVE-225" value="" style="group;fontColor=#5AA9E6;" parent="NtKaaoDLOek2f3o7ezVE-1" vertex="1" connectable="0">
                    <mxGeometry y="590" width="480" height="200" as="geometry"/>
                </mxCell>
                <mxCell id="NtKaaoDLOek2f3o7ezVE-28" value="P=3,Â max_size=3" style="shape=table;startSize=40;container=1;collapsible=0;childLayout=tableLayout;fontStyle=1;align=center;strokeColor=#006EAF;strokeWidth=1;fillColor=#1ba1e2;fontColor=#ffffff;" parent="NtKaaoDLOek2f3o7ezVE-225" vertex="1">
                    <mxGeometry x="170" width="140" height="80" as="geometry"/>
                </mxCell>
                <mxCell id="NtKaaoDLOek2f3o7ezVE-29" value="" style="shape=partialRectangle;html=1;whiteSpace=wrap;collapsible=0;dropTarget=0;pointerEvents=0;fillColor=none;top=0;left=0;bottom=0;right=0;points=[[0,0.5],[1,0.5]];portConstraint=eastwest;strokeColor=#FF6392;fontColor=#5AA9E6;" parent="NtKaaoDLOek2f3o7ezVE-28" vertex="1">
                    <mxGeometry y="40" width="140" height="40" as="geometry"/>
                </mxCell>
                <mxCell id="NtKaaoDLOek2f3o7ezVE-30" value="" style="shape=partialRectangle;html=1;whiteSpace=wrap;connectable=0;top=1;left=1;bottom=1;right=1;overflow=hidden;fillColor=#FFE45E;strokeColor=#FF6392;fontColor=#5AA9E6;" parent="NtKaaoDLOek2f3o7ezVE-29" vertex="1">
                    <mxGeometry width="47" height="40" as="geometry"/>
                </mxCell>
                <mxCell id="NtKaaoDLOek2f3o7ezVE-31" value="2" style="shape=partialRectangle;html=1;whiteSpace=wrap;connectable=0;top=1;left=1;bottom=1;right=1;overflow=hidden;fillColor=#FFE45E;strokeColor=#FF6392;fontColor=#5AA9E6;" parent="NtKaaoDLOek2f3o7ezVE-29" vertex="1">
                    <mxGeometry x="47" width="46" height="40" as="geometry"/>
                </mxCell>
                <mxCell id="NtKaaoDLOek2f3o7ezVE-32" value="3" style="shape=partialRectangle;html=1;whiteSpace=wrap;connectable=0;top=1;left=1;bottom=1;right=1;overflow=hidden;fillColor=#FFE45E;strokeColor=#FF6392;fontColor=#5AA9E6;" parent="NtKaaoDLOek2f3o7ezVE-29" vertex="1">
                    <mxGeometry x="93" width="47" height="40" as="geometry"/>
                </mxCell>
                <mxCell id="NtKaaoDLOek2f3o7ezVE-33" style="rounded=0;orthogonalLoop=1;jettySize=auto;html=1;exitX=0.159;exitY=0.995;exitDx=0;exitDy=0;exitPerimeter=0;entryX=0.5;entryY=0;entryDx=0;entryDy=0;strokeColor=#FF6392;fontColor=#5AA9E6;" parent="NtKaaoDLOek2f3o7ezVE-225" source="NtKaaoDLOek2f3o7ezVE-29" target="NtKaaoDLOek2f3o7ezVE-35" edge="1">
                    <mxGeometry x="20" y="-300" as="geometry">
                        <mxPoint x="110" y="80" as="sourcePoint"/>
                        <mxPoint x="130" y="90" as="targetPoint"/>
                    </mxGeometry>
                </mxCell>
                <mxCell id="NtKaaoDLOek2f3o7ezVE-35" value="P=1, max_size=2" style="shape=table;startSize=40;container=1;collapsible=0;childLayout=tableLayout;fontStyle=1;align=center;strokeColor=#005700;strokeWidth=1;fillColor=#008a00;fontColor=#ffffff;" parent="NtKaaoDLOek2f3o7ezVE-225" vertex="1">
                    <mxGeometry y="120" width="140" height="80" as="geometry"/>
                </mxCell>
                <mxCell id="NtKaaoDLOek2f3o7ezVE-36" value="" style="shape=partialRectangle;html=1;whiteSpace=wrap;collapsible=0;dropTarget=0;pointerEvents=0;fillColor=none;top=0;left=0;bottom=0;right=0;points=[[0,0.5],[1,0.5]];portConstraint=eastwest;strokeColor=#FF6392;fontColor=#5AA9E6;" parent="NtKaaoDLOek2f3o7ezVE-35" vertex="1">
                    <mxGeometry y="40" width="140" height="40" as="geometry"/>
                </mxCell>
                <mxCell id="NtKaaoDLOek2f3o7ezVE-37" value="1" style="shape=partialRectangle;html=1;whiteSpace=wrap;connectable=0;top=1;left=1;bottom=1;right=1;overflow=hidden;fillColor=#FFE45E;strokeColor=#FF6392;fontColor=#5AA9E6;" parent="NtKaaoDLOek2f3o7ezVE-36" vertex="1">
                    <mxGeometry width="70" height="40" as="geometry"/>
                </mxCell>
                <mxCell id="NtKaaoDLOek2f3o7ezVE-38" value="" style="shape=partialRectangle;html=1;whiteSpace=wrap;connectable=0;top=1;left=1;bottom=1;right=1;overflow=hidden;fillColor=#FFE45E;strokeColor=#FF6392;fontColor=#5AA9E6;" parent="NtKaaoDLOek2f3o7ezVE-36" vertex="1">
                    <mxGeometry x="70" width="70" height="40" as="geometry"/>
                </mxCell>
                <mxCell id="NtKaaoDLOek2f3o7ezVE-40" value="P=2, max_size=2" style="shape=table;startSize=40;container=1;collapsible=0;childLayout=tableLayout;fontStyle=1;align=center;strokeColor=#005700;strokeWidth=1;fillColor=#008a00;fontColor=#ffffff;" parent="NtKaaoDLOek2f3o7ezVE-225" vertex="1">
                    <mxGeometry x="170" y="120" width="140" height="80" as="geometry"/>
                </mxCell>
                <mxCell id="NtKaaoDLOek2f3o7ezVE-41" value="" style="shape=partialRectangle;html=1;whiteSpace=wrap;collapsible=0;dropTarget=0;pointerEvents=0;fillColor=none;top=0;left=0;bottom=0;right=0;points=[[0,0.5],[1,0.5]];portConstraint=eastwest;strokeColor=#FF6392;fontColor=#5AA9E6;" parent="NtKaaoDLOek2f3o7ezVE-40" vertex="1">
                    <mxGeometry y="40" width="140" height="40" as="geometry"/>
                </mxCell>
                <mxCell id="NtKaaoDLOek2f3o7ezVE-42" value="2" style="shape=partialRectangle;html=1;whiteSpace=wrap;connectable=0;top=1;left=1;bottom=1;right=1;overflow=hidden;fillColor=#FFE45E;strokeColor=#FF6392;fontColor=#5AA9E6;" parent="NtKaaoDLOek2f3o7ezVE-41" vertex="1">
                    <mxGeometry width="70" height="40" as="geometry"/>
                </mxCell>
                <mxCell id="NtKaaoDLOek2f3o7ezVE-43" value="" style="shape=partialRectangle;html=1;whiteSpace=wrap;connectable=0;top=1;left=1;bottom=1;right=1;overflow=hidden;fillColor=#FFE45E;strokeColor=#FF6392;fontColor=#5AA9E6;" parent="NtKaaoDLOek2f3o7ezVE-41" vertex="1">
                    <mxGeometry x="70" width="70" height="40" as="geometry"/>
                </mxCell>
                <mxCell id="NtKaaoDLOek2f3o7ezVE-34" style="edgeStyle=none;rounded=0;orthogonalLoop=1;jettySize=auto;html=1;exitX=1;exitY=0.25;exitDx=0;exitDy=0;entryX=0;entryY=0.25;entryDx=0;entryDy=0;labelBackgroundColor=none;strokeColor=#FF6392;fontColor=#5AA9E6;" parent="NtKaaoDLOek2f3o7ezVE-225" source="NtKaaoDLOek2f3o7ezVE-35" target="NtKaaoDLOek2f3o7ezVE-40" edge="1">
                    <mxGeometry x="20" y="-300" as="geometry"/>
                </mxCell>
                <mxCell id="NtKaaoDLOek2f3o7ezVE-44" style="rounded=0;orthogonalLoop=1;jettySize=auto;html=1;entryX=0.5;entryY=0;entryDx=0;entryDy=0;exitX=0.5;exitY=1.005;exitDx=0;exitDy=0;exitPerimeter=0;strokeColor=#FF6392;fontColor=#5AA9E6;" parent="NtKaaoDLOek2f3o7ezVE-225" source="NtKaaoDLOek2f3o7ezVE-29" target="NtKaaoDLOek2f3o7ezVE-40" edge="1">
                    <mxGeometry x="20" y="-300" as="geometry">
                        <mxPoint x="240" y="80" as="sourcePoint"/>
                        <mxPoint x="99.99999999999989" y="130" as="targetPoint"/>
                    </mxGeometry>
                </mxCell>
                <mxCell id="NtKaaoDLOek2f3o7ezVE-45" value="P=4, max_size=2" style="shape=table;startSize=40;container=1;collapsible=0;childLayout=tableLayout;fontStyle=1;align=center;strokeColor=#005700;strokeWidth=1;fillColor=#008a00;fontColor=#ffffff;" parent="NtKaaoDLOek2f3o7ezVE-225" vertex="1">
                    <mxGeometry x="340" y="120" width="140" height="80" as="geometry"/>
                </mxCell>
                <mxCell id="NtKaaoDLOek2f3o7ezVE-46" value="" style="shape=partialRectangle;html=1;whiteSpace=wrap;collapsible=0;dropTarget=0;pointerEvents=0;fillColor=none;top=0;left=0;bottom=0;right=0;points=[[0,0.5],[1,0.5]];portConstraint=eastwest;strokeColor=#FF6392;fontColor=#5AA9E6;" parent="NtKaaoDLOek2f3o7ezVE-45" vertex="1">
                    <mxGeometry y="40" width="140" height="40" as="geometry"/>
                </mxCell>
                <mxCell id="NtKaaoDLOek2f3o7ezVE-47" value="3" style="shape=partialRectangle;html=1;whiteSpace=wrap;connectable=0;top=1;left=1;bottom=1;right=1;overflow=hidden;fillColor=#FFE45E;strokeColor=#FF6392;fontColor=#5AA9E6;" parent="NtKaaoDLOek2f3o7ezVE-46" vertex="1">
                    <mxGeometry width="70" height="40" as="geometry"/>
                </mxCell>
                <mxCell id="NtKaaoDLOek2f3o7ezVE-48" value="" style="shape=partialRectangle;html=1;whiteSpace=wrap;connectable=0;top=1;left=1;bottom=1;right=1;overflow=hidden;fillColor=#FFE45E;strokeColor=#FF6392;fontColor=#5AA9E6;" parent="NtKaaoDLOek2f3o7ezVE-46" vertex="1">
                    <mxGeometry x="70" width="70" height="40" as="geometry"/>
                </mxCell>
                <mxCell id="NtKaaoDLOek2f3o7ezVE-39" style="edgeStyle=none;rounded=0;orthogonalLoop=1;jettySize=auto;html=1;exitX=1;exitY=0.25;exitDx=0;exitDy=0;entryX=0;entryY=0.25;entryDx=0;entryDy=0;labelBackgroundColor=none;strokeColor=#FF6392;fontColor=#5AA9E6;" parent="NtKaaoDLOek2f3o7ezVE-225" source="NtKaaoDLOek2f3o7ezVE-40" target="NtKaaoDLOek2f3o7ezVE-45" edge="1">
                    <mxGeometry x="20" y="-300" as="geometry"/>
                </mxCell>
                <mxCell id="NtKaaoDLOek2f3o7ezVE-49" style="rounded=0;orthogonalLoop=1;jettySize=auto;html=1;entryX=0.5;entryY=0;entryDx=0;entryDy=0;exitX=0.836;exitY=0.995;exitDx=0;exitDy=0;exitPerimeter=0;strokeColor=#FF6392;fontColor=#5AA9E6;" parent="NtKaaoDLOek2f3o7ezVE-225" source="NtKaaoDLOek2f3o7ezVE-29" target="NtKaaoDLOek2f3o7ezVE-45" edge="1">
                    <mxGeometry x="20" y="-300" as="geometry">
                        <mxPoint x="290" y="79.99999999999989" as="sourcePoint"/>
                        <mxPoint x="290" y="119.79999999999995" as="targetPoint"/>
                    </mxGeometry>
                </mxCell>
                <mxCell id="NtKaaoDLOek2f3o7ezVE-10" value="" style="group;fontColor=#5AA9E6;" parent="NtKaaoDLOek2f3o7ezVE-1" vertex="1" connectable="0">
                    <mxGeometry x="389" y="60" width="780" height="290" as="geometry"/>
                </mxCell>
                <mxCell id="NtKaaoDLOek2f3o7ezVE-175" value="P=3,Â max_size=3" style="shape=table;startSize=40;container=1;collapsible=0;childLayout=tableLayout;fontStyle=1;align=center;strokeColor=#006EAF;strokeWidth=1;fillColor=#1ba1e2;fontColor=#ffffff;" parent="NtKaaoDLOek2f3o7ezVE-10" vertex="1">
                    <mxGeometry x="140" y="90" width="140" height="80" as="geometry"/>
                </mxCell>
                <mxCell id="NtKaaoDLOek2f3o7ezVE-176" value="" style="shape=partialRectangle;html=1;whiteSpace=wrap;collapsible=0;dropTarget=0;pointerEvents=0;fillColor=none;top=0;left=0;bottom=0;right=0;points=[[0,0.5],[1,0.5]];portConstraint=eastwest;strokeColor=#FF6392;fontColor=#5AA9E6;" parent="NtKaaoDLOek2f3o7ezVE-175" vertex="1">
                    <mxGeometry y="40" width="140" height="40" as="geometry"/>
                </mxCell>
                <mxCell id="NtKaaoDLOek2f3o7ezVE-177" value="" style="shape=partialRectangle;html=1;whiteSpace=wrap;connectable=0;top=1;left=1;bottom=1;right=1;overflow=hidden;fillColor=#FFE45E;strokeColor=#FF6392;fontColor=#5AA9E6;" parent="NtKaaoDLOek2f3o7ezVE-176" vertex="1">
                    <mxGeometry width="47" height="40" as="geometry"/>
                </mxCell>
                <mxCell id="NtKaaoDLOek2f3o7ezVE-178" value="2" style="shape=partialRectangle;html=1;whiteSpace=wrap;connectable=0;top=1;left=1;bottom=1;right=1;overflow=hidden;fillColor=#FFE45E;strokeColor=#FF6392;fontColor=#5AA9E6;" parent="NtKaaoDLOek2f3o7ezVE-176" vertex="1">
                    <mxGeometry x="47" width="46" height="40" as="geometry"/>
                </mxCell>
                <mxCell id="NtKaaoDLOek2f3o7ezVE-179" value="" style="shape=partialRectangle;html=1;whiteSpace=wrap;connectable=0;top=1;left=1;bottom=1;right=1;overflow=hidden;fillColor=#FFE45E;strokeColor=#FF6392;fontColor=#5AA9E6;" parent="NtKaaoDLOek2f3o7ezVE-176" vertex="1">
                    <mxGeometry x="93" width="47" height="40" as="geometry"/>
                </mxCell>
                <mxCell id="NtKaaoDLOek2f3o7ezVE-180" style="rounded=0;orthogonalLoop=1;jettySize=auto;html=1;exitX=0.159;exitY=0.995;exitDx=0;exitDy=0;exitPerimeter=0;entryX=0.5;entryY=0;entryDx=0;entryDy=0;strokeColor=#FF6392;fontColor=#5AA9E6;" parent="NtKaaoDLOek2f3o7ezVE-10" source="NtKaaoDLOek2f3o7ezVE-176" target="NtKaaoDLOek2f3o7ezVE-182" edge="1">
                    <mxGeometry x="-1235" y="-330" as="geometry">
                        <mxPoint x="-1145" y="194" as="sourcePoint"/>
                        <mxPoint x="-1125" y="204" as="targetPoint"/>
                    </mxGeometry>
                </mxCell>
                <mxCell id="NtKaaoDLOek2f3o7ezVE-182" value="P=1, max_size=2" style="shape=table;startSize=40;container=1;collapsible=0;childLayout=tableLayout;fontStyle=1;align=center;strokeColor=#005700;strokeWidth=1;fillColor=#008a00;fontColor=#ffffff;" parent="NtKaaoDLOek2f3o7ezVE-10" vertex="1">
                    <mxGeometry y="210" width="140" height="80" as="geometry"/>
                </mxCell>
                <mxCell id="NtKaaoDLOek2f3o7ezVE-183" value="" style="shape=partialRectangle;html=1;whiteSpace=wrap;collapsible=0;dropTarget=0;pointerEvents=0;fillColor=none;top=0;left=0;bottom=0;right=0;points=[[0,0.5],[1,0.5]];portConstraint=eastwest;strokeColor=#FF6392;fontColor=#5AA9E6;" parent="NtKaaoDLOek2f3o7ezVE-182" vertex="1">
                    <mxGeometry y="40" width="140" height="40" as="geometry"/>
                </mxCell>
                <mxCell id="NtKaaoDLOek2f3o7ezVE-184" value="1" style="shape=partialRectangle;html=1;whiteSpace=wrap;connectable=0;top=1;left=1;bottom=1;right=1;overflow=hidden;fillColor=#FFE45E;strokeColor=#FF6392;fontColor=#5AA9E6;" parent="NtKaaoDLOek2f3o7ezVE-183" vertex="1">
                    <mxGeometry width="70" height="40" as="geometry"/>
                </mxCell>
                <mxCell id="NtKaaoDLOek2f3o7ezVE-185" value="" style="shape=partialRectangle;html=1;whiteSpace=wrap;connectable=0;top=1;left=1;bottom=1;right=1;overflow=hidden;fillColor=#FFE45E;strokeColor=#FF6392;fontColor=#5AA9E6;" parent="NtKaaoDLOek2f3o7ezVE-183" vertex="1">
                    <mxGeometry x="70" width="70" height="40" as="geometry"/>
                </mxCell>
                <mxCell id="NtKaaoDLOek2f3o7ezVE-187" value="P=2, max_size=2" style="shape=table;startSize=40;container=1;collapsible=0;childLayout=tableLayout;fontStyle=1;align=center;strokeColor=#005700;strokeWidth=1;fillColor=#008a00;fontColor=#ffffff;" parent="NtKaaoDLOek2f3o7ezVE-10" vertex="1">
                    <mxGeometry x="160" y="210" width="140" height="80" as="geometry"/>
                </mxCell>
                <mxCell id="NtKaaoDLOek2f3o7ezVE-188" value="" style="shape=partialRectangle;html=1;whiteSpace=wrap;collapsible=0;dropTarget=0;pointerEvents=0;fillColor=none;top=0;left=0;bottom=0;right=0;points=[[0,0.5],[1,0.5]];portConstraint=eastwest;strokeColor=#FF6392;fontColor=#5AA9E6;" parent="NtKaaoDLOek2f3o7ezVE-187" vertex="1">
                    <mxGeometry y="40" width="140" height="40" as="geometry"/>
                </mxCell>
                <mxCell id="NtKaaoDLOek2f3o7ezVE-189" value="2" style="shape=partialRectangle;html=1;whiteSpace=wrap;connectable=0;top=1;left=1;bottom=1;right=1;overflow=hidden;fillColor=#FFE45E;strokeColor=#FF6392;fontColor=#5AA9E6;" parent="NtKaaoDLOek2f3o7ezVE-188" vertex="1">
                    <mxGeometry width="70" height="40" as="geometry"/>
                </mxCell>
                <mxCell id="NtKaaoDLOek2f3o7ezVE-190" value="" style="shape=partialRectangle;html=1;whiteSpace=wrap;connectable=0;top=1;left=1;bottom=1;right=1;overflow=hidden;fillColor=#FFE45E;strokeColor=#FF6392;fontColor=#5AA9E6;" parent="NtKaaoDLOek2f3o7ezVE-188" vertex="1">
                    <mxGeometry x="70" width="70" height="40" as="geometry"/>
                </mxCell>
                <mxCell id="NtKaaoDLOek2f3o7ezVE-181" style="edgeStyle=none;rounded=0;orthogonalLoop=1;jettySize=auto;html=1;exitX=1;exitY=0.25;exitDx=0;exitDy=0;entryX=0;entryY=0.25;entryDx=0;entryDy=0;labelBackgroundColor=none;strokeColor=#FF6392;fontColor=#5AA9E6;" parent="NtKaaoDLOek2f3o7ezVE-10" source="NtKaaoDLOek2f3o7ezVE-182" target="NtKaaoDLOek2f3o7ezVE-187" edge="1">
                    <mxGeometry x="30" as="geometry"/>
                </mxCell>
                <mxCell id="NtKaaoDLOek2f3o7ezVE-191" style="rounded=0;orthogonalLoop=1;jettySize=auto;html=1;entryX=0.5;entryY=0;entryDx=0;entryDy=0;exitX=0.5;exitY=1.005;exitDx=0;exitDy=0;exitPerimeter=0;strokeColor=#FF6392;fontColor=#5AA9E6;" parent="NtKaaoDLOek2f3o7ezVE-10" source="NtKaaoDLOek2f3o7ezVE-176" target="NtKaaoDLOek2f3o7ezVE-187" edge="1">
                    <mxGeometry x="-1235" y="-330" as="geometry">
                        <mxPoint x="-1015" y="194" as="sourcePoint"/>
                        <mxPoint x="-1155" y="244" as="targetPoint"/>
                    </mxGeometry>
                </mxCell>
                <mxCell id="NtKaaoDLOek2f3o7ezVE-193" value="P=4, max_size=2" style="shape=table;startSize=40;container=1;collapsible=0;childLayout=tableLayout;fontStyle=1;align=center;strokeColor=#005700;strokeWidth=1;fillColor=#008a00;fontColor=#ffffff;" parent="NtKaaoDLOek2f3o7ezVE-10" vertex="1">
                    <mxGeometry x="320" y="210" width="140" height="80" as="geometry"/>
                </mxCell>
                <mxCell id="NtKaaoDLOek2f3o7ezVE-194" value="" style="shape=partialRectangle;html=1;whiteSpace=wrap;collapsible=0;dropTarget=0;pointerEvents=0;fillColor=none;top=0;left=0;bottom=0;right=0;points=[[0,0.5],[1,0.5]];portConstraint=eastwest;strokeColor=#FF6392;fontColor=#5AA9E6;" parent="NtKaaoDLOek2f3o7ezVE-193" vertex="1">
                    <mxGeometry y="40" width="140" height="40" as="geometry"/>
                </mxCell>
                <mxCell id="NtKaaoDLOek2f3o7ezVE-195" value="3" style="shape=partialRectangle;html=1;whiteSpace=wrap;connectable=0;top=1;left=1;bottom=1;right=1;overflow=hidden;fillColor=#FFE45E;strokeColor=#FF6392;fontColor=#5AA9E6;" parent="NtKaaoDLOek2f3o7ezVE-194" vertex="1">
                    <mxGeometry width="70" height="40" as="geometry"/>
                </mxCell>
                <mxCell id="NtKaaoDLOek2f3o7ezVE-196" value="" style="shape=partialRectangle;html=1;whiteSpace=wrap;connectable=0;top=1;left=1;bottom=1;right=1;overflow=hidden;fillColor=#FFE45E;strokeColor=#FF6392;fontColor=#5AA9E6;" parent="NtKaaoDLOek2f3o7ezVE-194" vertex="1">
                    <mxGeometry x="70" width="70" height="40" as="geometry"/>
                </mxCell>
                <mxCell id="NtKaaoDLOek2f3o7ezVE-186" style="edgeStyle=none;rounded=0;orthogonalLoop=1;jettySize=auto;html=1;exitX=1;exitY=0.25;exitDx=0;exitDy=0;entryX=0;entryY=0.25;entryDx=0;entryDy=0;labelBackgroundColor=none;strokeColor=#FF6392;fontColor=#5AA9E6;" parent="NtKaaoDLOek2f3o7ezVE-10" source="NtKaaoDLOek2f3o7ezVE-187" target="NtKaaoDLOek2f3o7ezVE-193" edge="1">
                    <mxGeometry x="30" as="geometry"/>
                </mxCell>
                <mxCell id="NtKaaoDLOek2f3o7ezVE-198" value="P=5, max_size=2" style="shape=table;startSize=40;container=1;collapsible=0;childLayout=tableLayout;fontStyle=1;align=center;strokeColor=#005700;strokeWidth=1;fillColor=#008a00;fontColor=#ffffff;" parent="NtKaaoDLOek2f3o7ezVE-10" vertex="1">
                    <mxGeometry x="480" y="210" width="140" height="80" as="geometry"/>
                </mxCell>
                <mxCell id="NtKaaoDLOek2f3o7ezVE-199" value="" style="shape=partialRectangle;html=1;whiteSpace=wrap;collapsible=0;dropTarget=0;pointerEvents=0;fillColor=none;top=0;left=0;bottom=0;right=0;points=[[0,0.5],[1,0.5]];portConstraint=eastwest;strokeColor=#FF6392;fontColor=#5AA9E6;" parent="NtKaaoDLOek2f3o7ezVE-198" vertex="1">
                    <mxGeometry y="40" width="140" height="40" as="geometry"/>
                </mxCell>
                <mxCell id="NtKaaoDLOek2f3o7ezVE-200" value="4" style="shape=partialRectangle;html=1;whiteSpace=wrap;connectable=0;top=1;left=1;bottom=1;right=1;overflow=hidden;fillColor=#FFE45E;strokeColor=#FF6392;fontColor=#5AA9E6;" parent="NtKaaoDLOek2f3o7ezVE-199" vertex="1">
                    <mxGeometry width="70" height="40" as="geometry"/>
                </mxCell>
                <mxCell id="NtKaaoDLOek2f3o7ezVE-201" value="" style="shape=partialRectangle;html=1;whiteSpace=wrap;connectable=0;top=1;left=1;bottom=1;right=1;overflow=hidden;fillColor=#FFE45E;strokeColor=#FF6392;fontColor=#5AA9E6;" parent="NtKaaoDLOek2f3o7ezVE-199" vertex="1">
                    <mxGeometry x="70" width="70" height="40" as="geometry"/>
                </mxCell>
                <mxCell id="NtKaaoDLOek2f3o7ezVE-192" style="edgeStyle=none;rounded=0;orthogonalLoop=1;jettySize=auto;html=1;exitX=1;exitY=0.25;exitDx=0;exitDy=0;entryX=0;entryY=0.25;entryDx=0;entryDy=0;labelBackgroundColor=none;strokeColor=#FF6392;fontColor=#5AA9E6;" parent="NtKaaoDLOek2f3o7ezVE-10" source="NtKaaoDLOek2f3o7ezVE-193" target="NtKaaoDLOek2f3o7ezVE-198" edge="1">
                    <mxGeometry x="30" as="geometry"/>
                </mxCell>
                <mxCell id="NtKaaoDLOek2f3o7ezVE-202" value="P=6,Â max_size=3" style="shape=table;startSize=40;container=1;collapsible=0;childLayout=tableLayout;fontStyle=1;align=center;strokeColor=#006EAF;strokeWidth=1;fillColor=#1ba1e2;fontColor=#ffffff;" parent="NtKaaoDLOek2f3o7ezVE-10" vertex="1">
                    <mxGeometry x="440" y="90" width="140" height="80" as="geometry"/>
                </mxCell>
                <mxCell id="NtKaaoDLOek2f3o7ezVE-203" value="" style="shape=partialRectangle;html=1;whiteSpace=wrap;collapsible=0;dropTarget=0;pointerEvents=0;fillColor=none;top=0;left=0;bottom=0;right=0;points=[[0,0.5],[1,0.5]];portConstraint=eastwest;strokeColor=#FF6392;fontColor=#5AA9E6;" parent="NtKaaoDLOek2f3o7ezVE-202" vertex="1">
                    <mxGeometry y="40" width="140" height="40" as="geometry"/>
                </mxCell>
                <mxCell id="NtKaaoDLOek2f3o7ezVE-204" value="" style="shape=partialRectangle;html=1;whiteSpace=wrap;connectable=0;top=1;left=1;bottom=1;right=1;overflow=hidden;fillColor=#FFE45E;strokeColor=#FF6392;fontColor=#5AA9E6;" parent="NtKaaoDLOek2f3o7ezVE-203" vertex="1">
                    <mxGeometry width="47" height="40" as="geometry"/>
                </mxCell>
                <mxCell id="NtKaaoDLOek2f3o7ezVE-205" value="4" style="shape=partialRectangle;html=1;whiteSpace=wrap;connectable=0;top=1;left=1;bottom=1;right=1;overflow=hidden;fillColor=#FFE45E;strokeColor=#FF6392;fontColor=#5AA9E6;" parent="NtKaaoDLOek2f3o7ezVE-203" vertex="1">
                    <mxGeometry x="47" width="46" height="40" as="geometry"/>
                </mxCell>
                <mxCell id="NtKaaoDLOek2f3o7ezVE-206" value="5" style="shape=partialRectangle;html=1;whiteSpace=wrap;connectable=0;top=1;left=1;bottom=1;right=1;overflow=hidden;fillColor=#FFE45E;strokeColor=#FF6392;fontColor=#5AA9E6;" parent="NtKaaoDLOek2f3o7ezVE-203" vertex="1">
                    <mxGeometry x="93" width="47" height="40" as="geometry"/>
                </mxCell>
                <mxCell id="NtKaaoDLOek2f3o7ezVE-207" value="P=7,Â max_size=3" style="shape=table;startSize=40;container=1;collapsible=0;childLayout=tableLayout;fontStyle=1;align=center;strokeColor=#006EAF;strokeWidth=1;fillColor=#1ba1e2;fontColor=#ffffff;" parent="NtKaaoDLOek2f3o7ezVE-10" vertex="1">
                    <mxGeometry x="290" width="140" height="80" as="geometry"/>
                </mxCell>
                <mxCell id="NtKaaoDLOek2f3o7ezVE-208" value="" style="shape=partialRectangle;html=1;whiteSpace=wrap;collapsible=0;dropTarget=0;pointerEvents=0;fillColor=none;top=0;left=0;bottom=0;right=0;points=[[0,0.5],[1,0.5]];portConstraint=eastwest;strokeColor=#FF6392;fontColor=#5AA9E6;" parent="NtKaaoDLOek2f3o7ezVE-207" vertex="1">
                    <mxGeometry y="40" width="140" height="40" as="geometry"/>
                </mxCell>
                <mxCell id="NtKaaoDLOek2f3o7ezVE-209" value="" style="shape=partialRectangle;html=1;whiteSpace=wrap;connectable=0;top=1;left=1;bottom=1;right=1;overflow=hidden;fillColor=#FFE45E;strokeColor=#FF6392;fontColor=#5AA9E6;" parent="NtKaaoDLOek2f3o7ezVE-208" vertex="1">
                    <mxGeometry width="47" height="40" as="geometry"/>
                </mxCell>
                <mxCell id="NtKaaoDLOek2f3o7ezVE-210" value="3" style="shape=partialRectangle;html=1;whiteSpace=wrap;connectable=0;top=1;left=1;bottom=1;right=1;overflow=hidden;fillColor=#FFE45E;strokeColor=#FF6392;fontColor=#5AA9E6;" parent="NtKaaoDLOek2f3o7ezVE-208" vertex="1">
                    <mxGeometry x="47" width="46" height="40" as="geometry"/>
                </mxCell>
                <mxCell id="NtKaaoDLOek2f3o7ezVE-211" value="" style="shape=partialRectangle;html=1;whiteSpace=wrap;connectable=0;top=1;left=1;bottom=1;right=1;overflow=hidden;fillColor=#FFE45E;strokeColor=#FF6392;fontColor=#5AA9E6;" parent="NtKaaoDLOek2f3o7ezVE-208" vertex="1">
                    <mxGeometry x="93" width="47" height="40" as="geometry"/>
                </mxCell>
                <mxCell id="NtKaaoDLOek2f3o7ezVE-212" style="rounded=0;orthogonalLoop=1;jettySize=auto;html=1;entryX=0.5;entryY=0;entryDx=0;entryDy=0;exitX=0.162;exitY=0.992;exitDx=0;exitDy=0;exitPerimeter=0;strokeColor=#FF6392;fontColor=#5AA9E6;" parent="NtKaaoDLOek2f3o7ezVE-10" source="NtKaaoDLOek2f3o7ezVE-208" target="NtKaaoDLOek2f3o7ezVE-175" edge="1">
                    <mxGeometry x="-1235" y="-330" as="geometry">
                        <mxPoint x="-925" y="129.80000000000018" as="sourcePoint"/>
                        <mxPoint x="-822.04" y="170" as="targetPoint"/>
                    </mxGeometry>
                </mxCell>
                <mxCell id="NtKaaoDLOek2f3o7ezVE-213" style="rounded=0;orthogonalLoop=1;jettySize=auto;html=1;entryX=0.5;entryY=0;entryDx=0;entryDy=0;exitX=0.496;exitY=1.001;exitDx=0;exitDy=0;exitPerimeter=0;strokeColor=#FF6392;fontColor=#5AA9E6;" parent="NtKaaoDLOek2f3o7ezVE-10" source="NtKaaoDLOek2f3o7ezVE-208" target="NtKaaoDLOek2f3o7ezVE-202" edge="1">
                    <mxGeometry x="-1235" y="-330" as="geometry">
                        <mxPoint x="-895" y="80" as="sourcePoint"/>
                        <mxPoint x="-792.04" y="120.20000000000005" as="targetPoint"/>
                    </mxGeometry>
                </mxCell>
                <mxCell id="NtKaaoDLOek2f3o7ezVE-214" style="rounded=0;orthogonalLoop=1;jettySize=auto;html=1;entryX=0.5;entryY=0;entryDx=0;entryDy=0;exitX=0.16;exitY=0.998;exitDx=0;exitDy=0;exitPerimeter=0;strokeColor=#FF6392;fontColor=#5AA9E6;" parent="NtKaaoDLOek2f3o7ezVE-10" source="NtKaaoDLOek2f3o7ezVE-203" target="NtKaaoDLOek2f3o7ezVE-193" edge="1">
                    <mxGeometry x="-1235" y="-330" as="geometry">
                        <mxPoint x="-725" y="200" as="sourcePoint"/>
                        <mxPoint x="-745" y="210.20000000000005" as="targetPoint"/>
                    </mxGeometry>
                </mxCell>
                <mxCell id="NtKaaoDLOek2f3o7ezVE-215" style="rounded=0;orthogonalLoop=1;jettySize=auto;html=1;entryX=0.5;entryY=0;entryDx=0;entryDy=0;exitX=0.504;exitY=1.001;exitDx=0;exitDy=0;exitPerimeter=0;strokeColor=#FF6392;fontColor=#5AA9E6;" parent="NtKaaoDLOek2f3o7ezVE-10" source="NtKaaoDLOek2f3o7ezVE-203" target="NtKaaoDLOek2f3o7ezVE-198" edge="1">
                    <mxGeometry x="-1235" y="-330" as="geometry">
                        <mxPoint x="-757.5999999999999" y="203.92000000000007" as="sourcePoint"/>
                        <mxPoint x="-775" y="244" as="targetPoint"/>
                    </mxGeometry>
                </mxCell>
                <mxCell id="NtKaaoDLOek2f3o7ezVE-216" value="P=8, max_size=2" style="shape=table;startSize=40;container=1;collapsible=0;childLayout=tableLayout;fontStyle=1;align=center;strokeColor=#005700;strokeWidth=1;fillColor=#008a00;fontColor=#ffffff;" parent="NtKaaoDLOek2f3o7ezVE-10" vertex="1">
                    <mxGeometry x="640" y="210" width="140" height="80" as="geometry"/>
                </mxCell>
                <mxCell id="NtKaaoDLOek2f3o7ezVE-217" value="" style="shape=partialRectangle;html=1;whiteSpace=wrap;collapsible=0;dropTarget=0;pointerEvents=0;fillColor=none;top=0;left=0;bottom=0;right=0;points=[[0,0.5],[1,0.5]];portConstraint=eastwest;strokeColor=#FF6392;fontColor=#5AA9E6;" parent="NtKaaoDLOek2f3o7ezVE-216" vertex="1">
                    <mxGeometry y="40" width="140" height="40" as="geometry"/>
                </mxCell>
                <mxCell id="NtKaaoDLOek2f3o7ezVE-218" value="5" style="shape=partialRectangle;html=1;whiteSpace=wrap;connectable=0;top=1;left=1;bottom=1;right=1;overflow=hidden;fillColor=#FFE45E;strokeColor=#FF6392;fontColor=#5AA9E6;" parent="NtKaaoDLOek2f3o7ezVE-217" vertex="1">
                    <mxGeometry width="70" height="40" as="geometry"/>
                </mxCell>
                <mxCell id="NtKaaoDLOek2f3o7ezVE-219" value="" style="shape=partialRectangle;html=1;whiteSpace=wrap;connectable=0;top=1;left=1;bottom=1;right=1;overflow=hidden;fillColor=#FFE45E;strokeColor=#FF6392;fontColor=#5AA9E6;" parent="NtKaaoDLOek2f3o7ezVE-217" vertex="1">
                    <mxGeometry x="70" width="70" height="40" as="geometry"/>
                </mxCell>
                <mxCell id="NtKaaoDLOek2f3o7ezVE-197" style="edgeStyle=none;rounded=0;orthogonalLoop=1;jettySize=auto;html=1;exitX=1;exitY=0.25;exitDx=0;exitDy=0;entryX=0;entryY=0.25;entryDx=0;entryDy=0;labelBackgroundColor=none;strokeColor=#FF6392;fontColor=#5AA9E6;" parent="NtKaaoDLOek2f3o7ezVE-10" source="NtKaaoDLOek2f3o7ezVE-198" target="NtKaaoDLOek2f3o7ezVE-216" edge="1">
                    <mxGeometry x="30" as="geometry"/>
                </mxCell>
                <mxCell id="NtKaaoDLOek2f3o7ezVE-220" style="rounded=0;orthogonalLoop=1;jettySize=auto;html=1;entryX=0.5;entryY=0;entryDx=0;entryDy=0;exitX=0.835;exitY=0.999;exitDx=0;exitDy=0;exitPerimeter=0;strokeColor=#FF6392;fontColor=#5AA9E6;" parent="NtKaaoDLOek2f3o7ezVE-10" source="NtKaaoDLOek2f3o7ezVE-203" target="NtKaaoDLOek2f3o7ezVE-216" edge="1">
                    <mxGeometry x="-1225" y="-320" as="geometry">
                        <mxPoint x="520.56" y="180.0400000000002" as="sourcePoint"/>
                        <mxPoint x="580" y="220.00000000000023" as="targetPoint"/>
                    </mxGeometry>
                </mxCell>
                <mxCell id="_WdaPeNWTaMtohtt-1hf-0" value="" style="group" vertex="1" connectable="0" parent="NtKaaoDLOek2f3o7ezVE-1">
                    <mxGeometry x="519" y="500" width="650" height="290" as="geometry"/>
                </mxCell>
                <mxCell id="NtKaaoDLOek2f3o7ezVE-95" value="P=3,Â max_size=3" style="shape=table;startSize=40;container=1;collapsible=0;childLayout=tableLayout;fontStyle=1;align=center;strokeColor=#006EAF;strokeWidth=1;fillColor=#1ba1e2;fontColor=#ffffff;" parent="_WdaPeNWTaMtohtt-1hf-0" vertex="1">
                    <mxGeometry x="120" y="90" width="140" height="80" as="geometry"/>
                </mxCell>
                <mxCell id="NtKaaoDLOek2f3o7ezVE-96" value="" style="shape=partialRectangle;html=1;whiteSpace=wrap;collapsible=0;dropTarget=0;pointerEvents=0;fillColor=none;top=0;left=0;bottom=0;right=0;points=[[0,0.5],[1,0.5]];portConstraint=eastwest;strokeColor=#FF6392;fontColor=#5AA9E6;" parent="NtKaaoDLOek2f3o7ezVE-95" vertex="1">
                    <mxGeometry y="40" width="140" height="40" as="geometry"/>
                </mxCell>
                <mxCell id="NtKaaoDLOek2f3o7ezVE-97" value="" style="shape=partialRectangle;html=1;whiteSpace=wrap;connectable=0;top=1;left=1;bottom=1;right=1;overflow=hidden;fillColor=#FFE45E;strokeColor=#FF6392;fontColor=#5AA9E6;" parent="NtKaaoDLOek2f3o7ezVE-96" vertex="1">
                    <mxGeometry width="47" height="40" as="geometry"/>
                </mxCell>
                <mxCell id="NtKaaoDLOek2f3o7ezVE-98" value="2" style="shape=partialRectangle;html=1;whiteSpace=wrap;connectable=0;top=1;left=1;bottom=1;right=1;overflow=hidden;fillColor=#FFE45E;strokeColor=#FF6392;fontColor=#5AA9E6;" parent="NtKaaoDLOek2f3o7ezVE-96" vertex="1">
                    <mxGeometry x="47" width="46" height="40" as="geometry"/>
                </mxCell>
                <mxCell id="NtKaaoDLOek2f3o7ezVE-99" value="" style="shape=partialRectangle;html=1;whiteSpace=wrap;connectable=0;top=1;left=1;bottom=1;right=1;overflow=hidden;fillColor=#FFE45E;strokeColor=#FF6392;fontColor=#5AA9E6;" parent="NtKaaoDLOek2f3o7ezVE-96" vertex="1">
                    <mxGeometry x="93" width="47" height="40" as="geometry"/>
                </mxCell>
                <mxCell id="NtKaaoDLOek2f3o7ezVE-100" style="rounded=0;orthogonalLoop=1;jettySize=auto;html=1;exitX=0.159;exitY=0.995;exitDx=0;exitDy=0;exitPerimeter=0;entryX=0.5;entryY=0;entryDx=0;entryDy=0;strokeColor=#FF6392;fontColor=#5AA9E6;" parent="_WdaPeNWTaMtohtt-1hf-0" source="NtKaaoDLOek2f3o7ezVE-96" target="NtKaaoDLOek2f3o7ezVE-102" edge="1">
                    <mxGeometry x="5" y="-320" as="geometry">
                        <mxPoint x="95" y="204" as="sourcePoint"/>
                        <mxPoint x="115" y="214" as="targetPoint"/>
                    </mxGeometry>
                </mxCell>
                <mxCell id="NtKaaoDLOek2f3o7ezVE-102" value="P=1, max_size=2" style="shape=table;startSize=40;container=1;collapsible=0;childLayout=tableLayout;fontStyle=1;align=center;strokeColor=#005700;strokeWidth=1;fillColor=#008a00;fontColor=#ffffff;" parent="_WdaPeNWTaMtohtt-1hf-0" vertex="1">
                    <mxGeometry y="210" width="140" height="80" as="geometry"/>
                </mxCell>
                <mxCell id="NtKaaoDLOek2f3o7ezVE-103" value="" style="shape=partialRectangle;html=1;whiteSpace=wrap;collapsible=0;dropTarget=0;pointerEvents=0;fillColor=none;top=0;left=0;bottom=0;right=0;points=[[0,0.5],[1,0.5]];portConstraint=eastwest;strokeColor=#FF6392;fontColor=#5AA9E6;" parent="NtKaaoDLOek2f3o7ezVE-102" vertex="1">
                    <mxGeometry y="40" width="140" height="40" as="geometry"/>
                </mxCell>
                <mxCell id="NtKaaoDLOek2f3o7ezVE-104" value="1" style="shape=partialRectangle;html=1;whiteSpace=wrap;connectable=0;top=1;left=1;bottom=1;right=1;overflow=hidden;fillColor=#FFE45E;strokeColor=#FF6392;fontColor=#5AA9E6;" parent="NtKaaoDLOek2f3o7ezVE-103" vertex="1">
                    <mxGeometry width="70" height="40" as="geometry"/>
                </mxCell>
                <mxCell id="NtKaaoDLOek2f3o7ezVE-105" value="" style="shape=partialRectangle;html=1;whiteSpace=wrap;connectable=0;top=1;left=1;bottom=1;right=1;overflow=hidden;fillColor=#FFE45E;strokeColor=#FF6392;fontColor=#5AA9E6;" parent="NtKaaoDLOek2f3o7ezVE-103" vertex="1">
                    <mxGeometry x="70" width="70" height="40" as="geometry"/>
                </mxCell>
                <mxCell id="NtKaaoDLOek2f3o7ezVE-107" value="P=2, max_size=2" style="shape=table;startSize=40;container=1;collapsible=0;childLayout=tableLayout;fontStyle=1;align=center;strokeColor=#005700;strokeWidth=1;fillColor=#008a00;fontColor=#ffffff;" parent="_WdaPeNWTaMtohtt-1hf-0" vertex="1">
                    <mxGeometry x="170" y="210" width="140" height="80" as="geometry"/>
                </mxCell>
                <mxCell id="NtKaaoDLOek2f3o7ezVE-108" value="" style="shape=partialRectangle;html=1;whiteSpace=wrap;collapsible=0;dropTarget=0;pointerEvents=0;fillColor=none;top=0;left=0;bottom=0;right=0;points=[[0,0.5],[1,0.5]];portConstraint=eastwest;strokeColor=#FF6392;fontColor=#5AA9E6;" parent="NtKaaoDLOek2f3o7ezVE-107" vertex="1">
                    <mxGeometry y="40" width="140" height="40" as="geometry"/>
                </mxCell>
                <mxCell id="NtKaaoDLOek2f3o7ezVE-109" value="2" style="shape=partialRectangle;html=1;whiteSpace=wrap;connectable=0;top=1;left=1;bottom=1;right=1;overflow=hidden;fillColor=#FFE45E;strokeColor=#FF6392;fontColor=#5AA9E6;" parent="NtKaaoDLOek2f3o7ezVE-108" vertex="1">
                    <mxGeometry width="70" height="40" as="geometry"/>
                </mxCell>
                <mxCell id="NtKaaoDLOek2f3o7ezVE-110" value="" style="shape=partialRectangle;html=1;whiteSpace=wrap;connectable=0;top=1;left=1;bottom=1;right=1;overflow=hidden;fillColor=#FFE45E;strokeColor=#FF6392;fontColor=#5AA9E6;" parent="NtKaaoDLOek2f3o7ezVE-108" vertex="1">
                    <mxGeometry x="70" width="70" height="40" as="geometry"/>
                </mxCell>
                <mxCell id="NtKaaoDLOek2f3o7ezVE-101" style="edgeStyle=none;rounded=0;orthogonalLoop=1;jettySize=auto;html=1;exitX=1;exitY=0.25;exitDx=0;exitDy=0;entryX=0;entryY=0.25;entryDx=0;entryDy=0;labelBackgroundColor=none;strokeColor=#FF6392;fontColor=#5AA9E6;" parent="_WdaPeNWTaMtohtt-1hf-0" source="NtKaaoDLOek2f3o7ezVE-102" target="NtKaaoDLOek2f3o7ezVE-107" edge="1">
                    <mxGeometry x="10" y="-350" as="geometry"/>
                </mxCell>
                <mxCell id="NtKaaoDLOek2f3o7ezVE-111" style="rounded=0;orthogonalLoop=1;jettySize=auto;html=1;entryX=0.5;entryY=0;entryDx=0;entryDy=0;exitX=0.5;exitY=1.005;exitDx=0;exitDy=0;exitPerimeter=0;strokeColor=#FF6392;fontColor=#5AA9E6;" parent="_WdaPeNWTaMtohtt-1hf-0" source="NtKaaoDLOek2f3o7ezVE-96" target="NtKaaoDLOek2f3o7ezVE-107" edge="1">
                    <mxGeometry x="5" y="-320" as="geometry">
                        <mxPoint x="225" y="204" as="sourcePoint"/>
                        <mxPoint x="85" y="254" as="targetPoint"/>
                    </mxGeometry>
                </mxCell>
                <mxCell id="NtKaaoDLOek2f3o7ezVE-113" value="P=4, max_size=2" style="shape=table;startSize=40;container=1;collapsible=0;childLayout=tableLayout;fontStyle=1;align=center;strokeColor=#005700;strokeWidth=1;fillColor=#008a00;fontColor=#ffffff;" parent="_WdaPeNWTaMtohtt-1hf-0" vertex="1">
                    <mxGeometry x="340" y="210" width="140" height="80" as="geometry"/>
                </mxCell>
                <mxCell id="NtKaaoDLOek2f3o7ezVE-114" value="" style="shape=partialRectangle;html=1;whiteSpace=wrap;collapsible=0;dropTarget=0;pointerEvents=0;fillColor=none;top=0;left=0;bottom=0;right=0;points=[[0,0.5],[1,0.5]];portConstraint=eastwest;strokeColor=#FF6392;fontColor=#5AA9E6;" parent="NtKaaoDLOek2f3o7ezVE-113" vertex="1">
                    <mxGeometry y="40" width="140" height="40" as="geometry"/>
                </mxCell>
                <mxCell id="NtKaaoDLOek2f3o7ezVE-115" value="3" style="shape=partialRectangle;html=1;whiteSpace=wrap;connectable=0;top=1;left=1;bottom=1;right=1;overflow=hidden;fillColor=#FFE45E;strokeColor=#FF6392;fontColor=#5AA9E6;" parent="NtKaaoDLOek2f3o7ezVE-114" vertex="1">
                    <mxGeometry width="70" height="40" as="geometry"/>
                </mxCell>
                <mxCell id="NtKaaoDLOek2f3o7ezVE-116" value="" style="shape=partialRectangle;html=1;whiteSpace=wrap;connectable=0;top=1;left=1;bottom=1;right=1;overflow=hidden;fillColor=#FFE45E;strokeColor=#FF6392;fontColor=#5AA9E6;" parent="NtKaaoDLOek2f3o7ezVE-114" vertex="1">
                    <mxGeometry x="70" width="70" height="40" as="geometry"/>
                </mxCell>
                <mxCell id="NtKaaoDLOek2f3o7ezVE-106" style="edgeStyle=none;rounded=0;orthogonalLoop=1;jettySize=auto;html=1;exitX=1;exitY=0.25;exitDx=0;exitDy=0;entryX=0;entryY=0.25;entryDx=0;entryDy=0;labelBackgroundColor=none;strokeColor=#FF6392;fontColor=#5AA9E6;" parent="_WdaPeNWTaMtohtt-1hf-0" source="NtKaaoDLOek2f3o7ezVE-107" target="NtKaaoDLOek2f3o7ezVE-113" edge="1">
                    <mxGeometry x="10" y="-350" as="geometry"/>
                </mxCell>
                <mxCell id="NtKaaoDLOek2f3o7ezVE-117" value="P=5, max_size=2" style="shape=table;startSize=40;container=1;collapsible=0;childLayout=tableLayout;fontStyle=1;align=center;strokeColor=#005700;strokeWidth=1;fillColor=#008a00;fontColor=#ffffff;" parent="_WdaPeNWTaMtohtt-1hf-0" vertex="1">
                    <mxGeometry x="510" y="210" width="140" height="80" as="geometry"/>
                </mxCell>
                <mxCell id="NtKaaoDLOek2f3o7ezVE-118" value="" style="shape=partialRectangle;html=1;whiteSpace=wrap;collapsible=0;dropTarget=0;pointerEvents=0;fillColor=none;top=0;left=0;bottom=0;right=0;points=[[0,0.5],[1,0.5]];portConstraint=eastwest;strokeColor=#FF6392;fontColor=#5AA9E6;" parent="NtKaaoDLOek2f3o7ezVE-117" vertex="1">
                    <mxGeometry y="40" width="140" height="40" as="geometry"/>
                </mxCell>
                <mxCell id="NtKaaoDLOek2f3o7ezVE-119" value="4" style="shape=partialRectangle;html=1;whiteSpace=wrap;connectable=0;top=1;left=1;bottom=1;right=1;overflow=hidden;fillColor=#FFE45E;strokeColor=#FF6392;fontColor=#5AA9E6;" parent="NtKaaoDLOek2f3o7ezVE-118" vertex="1">
                    <mxGeometry width="70" height="40" as="geometry"/>
                </mxCell>
                <mxCell id="NtKaaoDLOek2f3o7ezVE-120" value="" style="shape=partialRectangle;html=1;whiteSpace=wrap;connectable=0;top=1;left=1;bottom=1;right=1;overflow=hidden;fillColor=#FFE45E;strokeColor=#FF6392;fontColor=#5AA9E6;" parent="NtKaaoDLOek2f3o7ezVE-118" vertex="1">
                    <mxGeometry x="70" width="70" height="40" as="geometry"/>
                </mxCell>
                <mxCell id="NtKaaoDLOek2f3o7ezVE-112" style="edgeStyle=none;rounded=0;orthogonalLoop=1;jettySize=auto;html=1;exitX=1;exitY=0.25;exitDx=0;exitDy=0;entryX=0;entryY=0.25;entryDx=0;entryDy=0;labelBackgroundColor=none;strokeColor=#FF6392;fontColor=#5AA9E6;" parent="_WdaPeNWTaMtohtt-1hf-0" source="NtKaaoDLOek2f3o7ezVE-113" target="NtKaaoDLOek2f3o7ezVE-117" edge="1">
                    <mxGeometry x="10" y="-350" as="geometry"/>
                </mxCell>
                <mxCell id="NtKaaoDLOek2f3o7ezVE-121" value="P=6,Â max_size=3" style="shape=table;startSize=40;container=1;collapsible=0;childLayout=tableLayout;fontStyle=1;align=center;strokeColor=#006EAF;strokeWidth=1;fillColor=#1ba1e2;fontColor=#ffffff;" parent="_WdaPeNWTaMtohtt-1hf-0" vertex="1">
                    <mxGeometry x="420" y="90" width="140" height="80" as="geometry"/>
                </mxCell>
                <mxCell id="NtKaaoDLOek2f3o7ezVE-122" value="" style="shape=partialRectangle;html=1;whiteSpace=wrap;collapsible=0;dropTarget=0;pointerEvents=0;fillColor=none;top=0;left=0;bottom=0;right=0;points=[[0,0.5],[1,0.5]];portConstraint=eastwest;strokeColor=#FF6392;fontColor=#5AA9E6;" parent="NtKaaoDLOek2f3o7ezVE-121" vertex="1">
                    <mxGeometry y="40" width="140" height="40" as="geometry"/>
                </mxCell>
                <mxCell id="NtKaaoDLOek2f3o7ezVE-123" value="" style="shape=partialRectangle;html=1;whiteSpace=wrap;connectable=0;top=1;left=1;bottom=1;right=1;overflow=hidden;fillColor=#FFE45E;strokeColor=#FF6392;fontColor=#5AA9E6;" parent="NtKaaoDLOek2f3o7ezVE-122" vertex="1">
                    <mxGeometry width="47" height="40" as="geometry"/>
                </mxCell>
                <mxCell id="NtKaaoDLOek2f3o7ezVE-124" value="4" style="shape=partialRectangle;html=1;whiteSpace=wrap;connectable=0;top=1;left=1;bottom=1;right=1;overflow=hidden;fillColor=#FFE45E;strokeColor=#FF6392;fontColor=#5AA9E6;" parent="NtKaaoDLOek2f3o7ezVE-122" vertex="1">
                    <mxGeometry x="47" width="46" height="40" as="geometry"/>
                </mxCell>
                <mxCell id="NtKaaoDLOek2f3o7ezVE-125" value="" style="shape=partialRectangle;html=1;whiteSpace=wrap;connectable=0;top=1;left=1;bottom=1;right=1;overflow=hidden;fillColor=#FFE45E;strokeColor=#FF6392;fontColor=#5AA9E6;" parent="NtKaaoDLOek2f3o7ezVE-122" vertex="1">
                    <mxGeometry x="93" width="47" height="40" as="geometry"/>
                </mxCell>
                <mxCell id="NtKaaoDLOek2f3o7ezVE-126" value="P=7,Â max_size=3" style="shape=table;startSize=40;container=1;collapsible=0;childLayout=tableLayout;fontStyle=1;align=center;strokeColor=#006EAF;strokeWidth=1;fillColor=#1ba1e2;fontColor=#ffffff;" parent="_WdaPeNWTaMtohtt-1hf-0" vertex="1">
                    <mxGeometry x="270" width="140" height="80" as="geometry"/>
                </mxCell>
                <mxCell id="NtKaaoDLOek2f3o7ezVE-127" value="" style="shape=partialRectangle;html=1;whiteSpace=wrap;collapsible=0;dropTarget=0;pointerEvents=0;fillColor=none;top=0;left=0;bottom=0;right=0;points=[[0,0.5],[1,0.5]];portConstraint=eastwest;strokeColor=#FF6392;fontColor=#5AA9E6;" parent="NtKaaoDLOek2f3o7ezVE-126" vertex="1">
                    <mxGeometry y="40" width="140" height="40" as="geometry"/>
                </mxCell>
                <mxCell id="NtKaaoDLOek2f3o7ezVE-128" value="" style="shape=partialRectangle;html=1;whiteSpace=wrap;connectable=0;top=1;left=1;bottom=1;right=1;overflow=hidden;fillColor=#FFE45E;strokeColor=#FF6392;fontColor=#5AA9E6;" parent="NtKaaoDLOek2f3o7ezVE-127" vertex="1">
                    <mxGeometry width="47" height="40" as="geometry"/>
                </mxCell>
                <mxCell id="NtKaaoDLOek2f3o7ezVE-129" value="3" style="shape=partialRectangle;html=1;whiteSpace=wrap;connectable=0;top=1;left=1;bottom=1;right=1;overflow=hidden;fillColor=#FFE45E;strokeColor=#FF6392;fontColor=#5AA9E6;" parent="NtKaaoDLOek2f3o7ezVE-127" vertex="1">
                    <mxGeometry x="47" width="46" height="40" as="geometry"/>
                </mxCell>
                <mxCell id="NtKaaoDLOek2f3o7ezVE-130" value="" style="shape=partialRectangle;html=1;whiteSpace=wrap;connectable=0;top=1;left=1;bottom=1;right=1;overflow=hidden;fillColor=#FFE45E;strokeColor=#FF6392;fontColor=#5AA9E6;" parent="NtKaaoDLOek2f3o7ezVE-127" vertex="1">
                    <mxGeometry x="93" width="47" height="40" as="geometry"/>
                </mxCell>
                <mxCell id="NtKaaoDLOek2f3o7ezVE-131" style="rounded=0;orthogonalLoop=1;jettySize=auto;html=1;entryX=0.5;entryY=0;entryDx=0;entryDy=0;exitX=0.162;exitY=0.992;exitDx=0;exitDy=0;exitPerimeter=0;strokeColor=#FF6392;fontColor=#5AA9E6;" parent="_WdaPeNWTaMtohtt-1hf-0" source="NtKaaoDLOek2f3o7ezVE-127" target="NtKaaoDLOek2f3o7ezVE-95" edge="1">
                    <mxGeometry x="5" y="-320" as="geometry">
                        <mxPoint x="315" y="139.80000000000007" as="sourcePoint"/>
                        <mxPoint x="417.96000000000004" y="180" as="targetPoint"/>
                    </mxGeometry>
                </mxCell>
                <mxCell id="NtKaaoDLOek2f3o7ezVE-132" style="rounded=0;orthogonalLoop=1;jettySize=auto;html=1;entryX=0.5;entryY=0;entryDx=0;entryDy=0;exitX=0.496;exitY=1.001;exitDx=0;exitDy=0;exitPerimeter=0;strokeColor=#FF6392;fontColor=#5AA9E6;" parent="_WdaPeNWTaMtohtt-1hf-0" source="NtKaaoDLOek2f3o7ezVE-127" target="NtKaaoDLOek2f3o7ezVE-121" edge="1">
                    <mxGeometry x="5" y="-320" as="geometry">
                        <mxPoint x="345" y="90" as="sourcePoint"/>
                        <mxPoint x="447.96000000000004" y="130.20000000000005" as="targetPoint"/>
                    </mxGeometry>
                </mxCell>
                <mxCell id="NtKaaoDLOek2f3o7ezVE-133" style="rounded=0;orthogonalLoop=1;jettySize=auto;html=1;entryX=0.5;entryY=0;entryDx=0;entryDy=0;exitX=0.16;exitY=0.998;exitDx=0;exitDy=0;exitPerimeter=0;strokeColor=#FF6392;fontColor=#5AA9E6;" parent="_WdaPeNWTaMtohtt-1hf-0" source="NtKaaoDLOek2f3o7ezVE-122" target="NtKaaoDLOek2f3o7ezVE-113" edge="1">
                    <mxGeometry x="5" y="-320" as="geometry">
                        <mxPoint x="515" y="210" as="sourcePoint"/>
                        <mxPoint x="495" y="220.20000000000005" as="targetPoint"/>
                    </mxGeometry>
                </mxCell>
                <mxCell id="NtKaaoDLOek2f3o7ezVE-134" style="rounded=0;orthogonalLoop=1;jettySize=auto;html=1;entryX=0.5;entryY=0;entryDx=0;entryDy=0;exitX=0.504;exitY=1.001;exitDx=0;exitDy=0;exitPerimeter=0;strokeColor=#FF6392;fontColor=#5AA9E6;" parent="_WdaPeNWTaMtohtt-1hf-0" source="NtKaaoDLOek2f3o7ezVE-122" target="NtKaaoDLOek2f3o7ezVE-117" edge="1">
                    <mxGeometry x="5" y="-320" as="geometry">
                        <mxPoint x="482.4000000000001" y="213.92000000000007" as="sourcePoint"/>
                        <mxPoint x="465" y="254" as="targetPoint"/>
                    </mxGeometry>
                </mxCell>
                <mxCell id="ys9T8Q-qrtdEae6A7GRB-0" value="" style="group" vertex="1" connectable="0" parent="NtKaaoDLOek2f3o7ezVE-1">
                    <mxGeometry x="30" y="240" width="320" height="200" as="geometry"/>
                </mxCell>
                <mxCell id="NtKaaoDLOek2f3o7ezVE-55" value="P=3, max_size=3" style="shape=table;startSize=40;container=1;collapsible=0;childLayout=tableLayout;fontStyle=1;align=center;strokeColor=#006EAF;strokeWidth=1;fillColor=#1ba1e2;fontColor=#ffffff;" parent="ys9T8Q-qrtdEae6A7GRB-0" vertex="1">
                    <mxGeometry x="85" width="140" height="80" as="geometry"/>
                </mxCell>
                <mxCell id="NtKaaoDLOek2f3o7ezVE-56" value="" style="shape=partialRectangle;html=1;whiteSpace=wrap;collapsible=0;dropTarget=0;pointerEvents=0;fillColor=none;top=0;left=0;bottom=0;right=0;points=[[0,0.5],[1,0.5]];portConstraint=eastwest;strokeColor=#FF6392;fontColor=#5AA9E6;" parent="NtKaaoDLOek2f3o7ezVE-55" vertex="1">
                    <mxGeometry y="40" width="140" height="40" as="geometry"/>
                </mxCell>
                <mxCell id="NtKaaoDLOek2f3o7ezVE-57" value="" style="shape=partialRectangle;html=1;whiteSpace=wrap;connectable=0;top=1;left=1;bottom=1;right=1;overflow=hidden;fillColor=#FFE45E;strokeColor=#FF6392;fontColor=#5AA9E6;" parent="NtKaaoDLOek2f3o7ezVE-56" vertex="1">
                    <mxGeometry width="47" height="40" as="geometry"/>
                </mxCell>
                <mxCell id="NtKaaoDLOek2f3o7ezVE-58" value="2" style="shape=partialRectangle;html=1;whiteSpace=wrap;connectable=0;top=1;left=1;bottom=1;right=1;overflow=hidden;fillColor=#FFE45E;strokeColor=#FF6392;fontColor=#5AA9E6;" parent="NtKaaoDLOek2f3o7ezVE-56" vertex="1">
                    <mxGeometry x="47" width="46" height="40" as="geometry"/>
                </mxCell>
                <mxCell id="NtKaaoDLOek2f3o7ezVE-59" style="shape=partialRectangle;html=1;whiteSpace=wrap;connectable=0;top=1;left=1;bottom=1;right=1;overflow=hidden;fillColor=#FFE45E;strokeColor=#FF6392;fontColor=#5AA9E6;" parent="NtKaaoDLOek2f3o7ezVE-56" vertex="1">
                    <mxGeometry x="93" width="47" height="40" as="geometry"/>
                </mxCell>
                <mxCell id="NtKaaoDLOek2f3o7ezVE-61" style="rounded=0;orthogonalLoop=1;jettySize=auto;html=1;exitX=0.159;exitY=0.999;exitDx=0;exitDy=0;exitPerimeter=0;entryX=0.5;entryY=0;entryDx=0;entryDy=0;strokeColor=#FF6392;fontColor=#5AA9E6;" parent="ys9T8Q-qrtdEae6A7GRB-0" source="NtKaaoDLOek2f3o7ezVE-56" target="NtKaaoDLOek2f3o7ezVE-63" edge="1">
                    <mxGeometry x="10" y="-170" as="geometry">
                        <mxPoint x="100" y="80" as="sourcePoint"/>
                        <mxPoint x="120" y="90" as="targetPoint"/>
                    </mxGeometry>
                </mxCell>
                <mxCell id="NtKaaoDLOek2f3o7ezVE-63" value="P=1, max_size=2" style="shape=table;startSize=40;container=1;collapsible=0;childLayout=tableLayout;fontStyle=1;align=center;strokeColor=#005700;strokeWidth=1;fillColor=#008a00;fontColor=#ffffff;" parent="ys9T8Q-qrtdEae6A7GRB-0" vertex="1">
                    <mxGeometry y="120" width="140" height="80" as="geometry"/>
                </mxCell>
                <mxCell id="NtKaaoDLOek2f3o7ezVE-64" value="" style="shape=partialRectangle;html=1;whiteSpace=wrap;collapsible=0;dropTarget=0;pointerEvents=0;fillColor=none;top=0;left=0;bottom=0;right=0;points=[[0,0.5],[1,0.5]];portConstraint=eastwest;strokeColor=#FF6392;fontColor=#5AA9E6;" parent="NtKaaoDLOek2f3o7ezVE-63" vertex="1">
                    <mxGeometry y="40" width="140" height="40" as="geometry"/>
                </mxCell>
                <mxCell id="NtKaaoDLOek2f3o7ezVE-65" value="1" style="shape=partialRectangle;html=1;whiteSpace=wrap;connectable=0;top=1;left=1;bottom=1;right=1;overflow=hidden;fillColor=#FFE45E;strokeColor=#FF6392;fontColor=#5AA9E6;" parent="NtKaaoDLOek2f3o7ezVE-64" vertex="1">
                    <mxGeometry width="70" height="40" as="geometry"/>
                </mxCell>
                <mxCell id="NtKaaoDLOek2f3o7ezVE-66" value="" style="shape=partialRectangle;html=1;whiteSpace=wrap;connectable=0;top=1;left=1;bottom=1;right=1;overflow=hidden;fillColor=#FFE45E;strokeColor=#FF6392;fontColor=#5AA9E6;" parent="NtKaaoDLOek2f3o7ezVE-64" vertex="1">
                    <mxGeometry x="70" width="70" height="40" as="geometry"/>
                </mxCell>
                <mxCell id="NtKaaoDLOek2f3o7ezVE-67" value="P=2, max_size=2" style="shape=table;startSize=40;container=1;collapsible=0;childLayout=tableLayout;fontStyle=1;align=center;strokeColor=#005700;strokeWidth=1;fillColor=#008a00;fontColor=#ffffff;" parent="ys9T8Q-qrtdEae6A7GRB-0" vertex="1">
                    <mxGeometry x="180" y="120" width="140" height="80" as="geometry"/>
                </mxCell>
                <mxCell id="NtKaaoDLOek2f3o7ezVE-68" value="" style="shape=partialRectangle;html=1;whiteSpace=wrap;collapsible=0;dropTarget=0;pointerEvents=0;fillColor=none;top=0;left=0;bottom=0;right=0;points=[[0,0.5],[1,0.5]];portConstraint=eastwest;strokeColor=#FF6392;fontColor=#5AA9E6;" parent="NtKaaoDLOek2f3o7ezVE-67" vertex="1">
                    <mxGeometry y="40" width="140" height="40" as="geometry"/>
                </mxCell>
                <mxCell id="NtKaaoDLOek2f3o7ezVE-69" value="2" style="shape=partialRectangle;html=1;whiteSpace=wrap;connectable=0;top=1;left=1;bottom=1;right=1;overflow=hidden;fillColor=#FFE45E;strokeColor=#FF6392;fontColor=#5AA9E6;" parent="NtKaaoDLOek2f3o7ezVE-68" vertex="1">
                    <mxGeometry width="70" height="40" as="geometry"/>
                </mxCell>
                <mxCell id="NtKaaoDLOek2f3o7ezVE-70" value="" style="shape=partialRectangle;html=1;whiteSpace=wrap;connectable=0;top=1;left=1;bottom=1;right=1;overflow=hidden;fillColor=#FFE45E;strokeColor=#FF6392;fontColor=#5AA9E6;" parent="NtKaaoDLOek2f3o7ezVE-68" vertex="1">
                    <mxGeometry x="70" width="70" height="40" as="geometry"/>
                </mxCell>
                <mxCell id="NtKaaoDLOek2f3o7ezVE-62" style="edgeStyle=none;rounded=0;orthogonalLoop=1;jettySize=auto;html=1;exitX=1;exitY=0.25;exitDx=0;exitDy=0;entryX=0;entryY=0.25;entryDx=0;entryDy=0;labelBackgroundColor=none;strokeColor=#FF6392;fontColor=#5AA9E6;" parent="ys9T8Q-qrtdEae6A7GRB-0" source="NtKaaoDLOek2f3o7ezVE-63" target="NtKaaoDLOek2f3o7ezVE-67" edge="1">
                    <mxGeometry x="10" y="-170" as="geometry"/>
                </mxCell>
                <mxCell id="NtKaaoDLOek2f3o7ezVE-71" style="rounded=0;orthogonalLoop=1;jettySize=auto;html=1;entryX=0.5;entryY=0;entryDx=0;entryDy=0;exitX=0.5;exitY=1.005;exitDx=0;exitDy=0;exitPerimeter=0;strokeColor=#FF6392;fontColor=#5AA9E6;" parent="ys9T8Q-qrtdEae6A7GRB-0" source="NtKaaoDLOek2f3o7ezVE-56" target="NtKaaoDLOek2f3o7ezVE-67" edge="1">
                    <mxGeometry x="10" y="-170" as="geometry">
                        <mxPoint x="230" y="80" as="sourcePoint"/>
                        <mxPoint x="89.99999999999989" y="130" as="targetPoint"/>
                    </mxGeometry>
                </mxCell>
            </root>
        </mxGraphModel>
    </diagram>
</mxfile>
